<?xml version="1.0" encoding="utf-8" standalone="no"?>
<!DOCTYPE svg PUBLIC "-//W3C//DTD SVG 1.1//EN"
  "http://www.w3.org/Graphics/SVG/1.1/DTD/svg11.dtd">
<svg xmlns:xlink="http://www.w3.org/1999/xlink" width="251.701562pt" height="245.698438pt" viewBox="0 0 251.701562 245.698438" xmlns="http://www.w3.org/2000/svg" version="1.1">
 <metadata>
  <rdf:RDF xmlns:dc="http://purl.org/dc/elements/1.1/" xmlns:cc="http://creativecommons.org/ns#" xmlns:rdf="http://www.w3.org/1999/02/22-rdf-syntax-ns#">
   <cc:Work>
    <dc:type rdf:resource="http://purl.org/dc/dcmitype/StillImage"/>
    <dc:date>2025-03-28T16:58:31.095086</dc:date>
    <dc:format>image/svg+xml</dc:format>
    <dc:creator>
     <cc:Agent>
      <dc:title>Matplotlib v3.9.0, https://matplotlib.org/</dc:title>
     </cc:Agent>
    </dc:creator>
   </cc:Work>
  </rdf:RDF>
 </metadata>
 <defs>
  <style type="text/css">*{stroke-linejoin: round; stroke-linecap: butt}</style>
 </defs>
 <g id="figure_1">
  <g id="patch_1">
   <path d="M -0 245.698438 
L 251.701562 245.698438 
L 251.701562 0 
L -0 0 
z
" style="fill: #ffffff"/>
  </g>
  <g id="axes_1">
   <g id="patch_2">
    <path d="M 42.150781 210.1 
L 209.550781 210.1 
L 209.550781 43.78 
L 42.150781 43.78 
z
" style="fill: #ffffff"/>
   </g>
   <g id="matplotlib.axis_1">
    <g id="xtick_1">
     <g id="line2d_1">
      <defs>
       <path id="m6ad33cf508" d="M 0 0 
L 0 3.5 
" style="stroke: #000000; stroke-width: 0.8"/>
      </defs>
      <g>
       <use xlink:href="#m6ad33cf508" x="42.150781" y="210.1" style="stroke: #000000; stroke-width: 0.8"/>
      </g>
     </g>
     <g id="text_1">
      <!-- 1 -->
      <g transform="translate(39.526562 224.048438) scale(0.1 -0.1)">
       <defs>
        <path id="CMUBright-Roman-31" d="M 672 3559 
L 672 3884 
Q 1428 3884 1863 4300 
L 1966 4300 
L 1966 319 
L 2803 319 
L 2803 0 
L 709 0 
L 709 319 
L 1550 319 
L 1550 3744 
Q 1178 3559 672 3559 
z
" transform="scale(0.015625)"/>
       </defs>
       <use xlink:href="#CMUBright-Roman-31"/>
      </g>
     </g>
    </g>
    <g id="xtick_2">
     <g id="line2d_2">
      <g>
       <use xlink:href="#m6ad33cf508" x="63.985564" y="210.1" style="stroke: #000000; stroke-width: 0.8"/>
      </g>
     </g>
     <g id="text_2">
      <!-- 4 -->
      <g transform="translate(61.361345 224.048438) scale(0.1 -0.1)">
       <defs>
        <path id="CMUBright-Roman-34" d="M 184 1159 
L 184 1503 
L 1953 4250 
L 2438 4250 
L 2438 1497 
L 3169 1497 
L 3169 1159 
L 2438 1159 
L 2438 0 
L 2034 0 
L 2034 1159 
L 184 1159 
z
M 603 1497 
L 2053 1497 
L 2053 3884 
Q 1969 3666 1606 3084 
L 603 1497 
z
" transform="scale(0.015625)"/>
       </defs>
       <use xlink:href="#CMUBright-Roman-34"/>
      </g>
     </g>
    </g>
    <g id="xtick_3">
     <g id="line2d_3">
      <g>
       <use xlink:href="#m6ad33cf508" x="93.098607" y="210.1" style="stroke: #000000; stroke-width: 0.8"/>
      </g>
     </g>
     <g id="text_3">
      <!-- 8 -->
      <g transform="translate(90.474389 224.048438) scale(0.1 -0.1)">
       <defs>
        <path id="CMUBright-Roman-38" d="M 275 1159 
Q 275 1519 519 1819 
Q 763 2119 1247 2266 
Q 906 2350 639 2598 
Q 372 2847 372 3206 
Q 372 3641 745 3970 
Q 1119 4300 1678 4300 
Q 2222 4300 2601 3979 
Q 2981 3659 2981 3213 
Q 2981 2919 2786 2684 
Q 2591 2450 2284 2322 
L 2100 2266 
Q 2466 2175 2769 1884 
Q 3072 1594 3072 1159 
Q 3072 647 2665 269 
Q 2259 -109 1672 -109 
Q 1078 -109 676 275 
Q 275 659 275 1159 
z
M 697 1159 
Q 697 706 969 465 
Q 1241 225 1672 225 
Q 2119 225 2384 470 
Q 2650 716 2650 1166 
Q 2650 1619 2372 1862 
Q 2094 2106 1672 2106 
Q 1281 2106 989 1879 
Q 697 1653 697 1159 
z
M 756 3206 
Q 756 2888 982 2656 
Q 1209 2425 1672 2425 
Q 2094 2425 2342 2633 
Q 2591 2841 2591 3206 
Q 2591 3506 2386 3743 
Q 2181 3981 1684 3981 
Q 1172 3981 964 3743 
Q 756 3506 756 3206 
z
" transform="scale(0.015625)"/>
       </defs>
       <use xlink:href="#CMUBright-Roman-38"/>
      </g>
     </g>
    </g>
    <g id="xtick_4">
     <g id="line2d_4">
      <g>
       <use xlink:href="#m6ad33cf508" x="122.211651" y="210.1" style="stroke: #000000; stroke-width: 0.8"/>
      </g>
     </g>
     <g id="text_4">
      <!-- 12 -->
      <g transform="translate(116.963213 224.048438) scale(0.1 -0.1)">
       <defs>
        <path id="CMUBright-Roman-32" d="M 275 3225 
Q 594 4300 1588 4300 
L 1594 4300 
Q 2216 4294 2619 3923 
Q 3022 3553 3022 2988 
Q 3022 2744 2937 2530 
Q 2853 2316 2668 2114 
Q 2484 1913 2384 1820 
Q 2284 1728 2059 1550 
Q 1753 1300 1640 1203 
Q 1528 1106 697 359 
L 3022 359 
L 3022 0 
L 331 0 
L 331 341 
L 1684 1563 
Q 2144 1966 2367 2278 
Q 2591 2591 2591 2981 
Q 2591 3416 2278 3689 
Q 1966 3963 1497 3963 
Q 1069 3963 855 3694 
Q 641 3425 513 2938 
L 275 3225 
z
" transform="scale(0.015625)"/>
       </defs>
       <use xlink:href="#CMUBright-Roman-31"/>
       <use xlink:href="#CMUBright-Roman-32" x="52.490234"/>
      </g>
     </g>
    </g>
    <g id="xtick_5">
     <g id="line2d_5">
      <g>
       <use xlink:href="#m6ad33cf508" x="151.324694" y="210.1" style="stroke: #000000; stroke-width: 0.8"/>
      </g>
     </g>
     <g id="text_5">
      <!-- 16 -->
      <g transform="translate(146.076257 224.048438) scale(0.1 -0.1)">
       <defs>
        <path id="CMUBright-Roman-36" d="M 347 2059 
Q 347 3072 864 3686 
Q 1381 4300 2075 4300 
L 2088 4300 
Q 2428 4300 2797 4178 
L 2797 3847 
Q 2375 3981 2075 3981 
L 2059 3981 
Q 1478 3981 1123 3492 
Q 769 3003 769 2209 
Q 769 2197 772 2167 
Q 775 2138 775 2125 
Q 928 2444 1239 2666 
Q 1550 2888 1953 2888 
Q 2388 2888 2681 2484 
Q 3006 2031 3009 1409 
Q 3009 769 2619 325 
Q 2241 -109 1691 -109 
Q 1513 -109 1342 -57 
Q 1172 -6 986 141 
Q 800 288 662 522 
Q 525 756 436 1151 
Q 347 1547 347 2059 
z
M 794 1388 
Q 813 1169 855 1003 
Q 897 838 986 642 
Q 1075 447 1254 336 
Q 1434 225 1691 225 
Q 2138 225 2381 550 
Q 2516 734 2550 920 
Q 2584 1106 2584 1434 
Q 2584 1647 2571 1776 
Q 2559 1906 2479 2089 
Q 2400 2272 2253 2400 
Q 2056 2566 1728 2566 
Q 1325 2566 1062 2266 
Q 800 1966 800 1556 
Q 800 1441 806 1388 
L 794 1388 
z
" transform="scale(0.015625)"/>
       </defs>
       <use xlink:href="#CMUBright-Roman-31"/>
       <use xlink:href="#CMUBright-Roman-36" x="52.490234"/>
      </g>
     </g>
    </g>
    <g id="xtick_6">
     <g id="line2d_6">
      <g>
       <use xlink:href="#m6ad33cf508" x="180.437738" y="210.1" style="stroke: #000000; stroke-width: 0.8"/>
      </g>
     </g>
     <g id="text_6">
      <!-- 20 -->
      <g transform="translate(175.1893 224.048438) scale(0.1 -0.1)">
       <defs>
        <path id="CMUBright-Roman-30" d="M 331 1984 
L 331 2088 
Q 331 2294 339 2439 
Q 347 2584 372 2831 
Q 397 3078 461 3267 
Q 525 3456 620 3657 
Q 716 3859 880 4006 
Q 1044 4153 1259 4231 
Q 1444 4303 1678 4300 
Q 1856 4300 2025 4256 
Q 2194 4213 2380 4070 
Q 2566 3928 2703 3708 
Q 2841 3488 2931 3103 
Q 3022 2719 3022 2216 
Q 3022 1684 2983 1348 
Q 2944 1013 2803 684 
Q 2619 250 2308 70 
Q 1997 -109 1678 -109 
Q 1500 -109 1329 -64 
Q 1159 -19 973 122 
Q 788 263 650 483 
Q 513 703 422 1090 
Q 331 1478 331 1984 
z
M 744 2413 
Q 744 2375 747 2326 
Q 750 2278 750 2272 
L 750 2150 
Q 750 1778 759 1548 
Q 769 1319 839 1014 
Q 909 709 1038 538 
Q 1288 219 1678 219 
Q 2088 219 2328 556 
Q 2450 728 2517 1036 
Q 2584 1344 2595 1567 
Q 2606 1791 2606 2163 
L 2606 2272 
Q 2606 2278 2609 2323 
Q 2613 2369 2613 2406 
Q 2613 3303 2338 3659 
Q 2100 3978 1678 3981 
Q 1244 3981 1006 3641 
Q 744 3263 744 2413 
z
" transform="scale(0.015625)"/>
       </defs>
       <use xlink:href="#CMUBright-Roman-32"/>
       <use xlink:href="#CMUBright-Roman-30" x="52.490234"/>
      </g>
     </g>
    </g>
    <g id="xtick_7">
     <g id="line2d_7">
      <g>
       <use xlink:href="#m6ad33cf508" x="209.550781" y="210.1" style="stroke: #000000; stroke-width: 0.8"/>
      </g>
     </g>
     <g id="text_7">
      <!-- 24 -->
      <g transform="translate(204.302344 224.048438) scale(0.1 -0.1)">
       <use xlink:href="#CMUBright-Roman-32"/>
       <use xlink:href="#CMUBright-Roman-34" x="52.490234"/>
      </g>
     </g>
    </g>
    <g id="text_8">
     <!-- Hour of the day -->
     <g transform="translate(92.021094 236.75) scale(0.1 -0.1)">
      <defs>
       <path id="CMUBright-Roman-48" d="M 628 0 
L 628 4447 
L 1075 4447 
L 1075 2484 
L 3450 2484 
L 3450 4447 
L 3897 4447 
L 3897 0 
L 3450 0 
L 3450 2144 
L 1075 2144 
L 1075 0 
L 628 0 
z
" transform="scale(0.015625)"/>
       <path id="CMUBright-Roman-6f" d="M 256 1509 
Q 256 2181 675 2639 
Q 1094 3097 1678 3097 
Q 2272 3097 2681 2626 
Q 3091 2156 3091 1509 
Q 3091 838 2669 394 
Q 2247 -50 1678 -50 
Q 1091 -50 673 406 
Q 256 863 256 1509 
z
M 666 1588 
Q 666 1191 772 916 
Q 878 641 1047 512 
Q 1216 384 1369 332 
Q 1522 281 1678 281 
Q 1844 281 2006 342 
Q 2169 403 2330 537 
Q 2491 672 2586 937 
Q 2681 1203 2681 1569 
Q 2681 1916 2586 2164 
Q 2491 2413 2330 2541 
Q 2169 2669 2006 2723 
Q 1844 2778 1676 2778 
Q 1509 2778 1346 2723 
Q 1184 2669 1023 2544 
Q 863 2419 764 2173 
Q 666 1928 666 1588 
z
" transform="scale(0.015625)"/>
       <path id="CMUBright-Roman-75" d="M 513 850 
L 513 3022 
L 928 3022 
L 928 781 
Q 928 488 1037 369 
Q 1147 250 1516 250 
Q 1875 250 2125 476 
Q 2375 703 2375 1119 
L 2375 3022 
L 2784 3022 
L 2784 0 
L 2381 0 
L 2381 550 
Q 2216 269 1911 109 
Q 1606 -50 1253 -50 
Q 1003 -50 843 29 
Q 684 109 617 262 
Q 550 416 531 541 
Q 513 666 513 850 
z
" transform="scale(0.015625)"/>
       <path id="CMUBright-Roman-72" d="M 513 0 
L 513 3022 
L 897 3022 
L 897 2534 
L 903 2234 
Q 953 2363 1042 2491 
Q 1131 2619 1273 2756 
Q 1416 2894 1633 2980 
Q 1850 3066 2113 3072 
L 2113 2713 
Q 1906 2706 1707 2642 
Q 1509 2578 1325 2443 
Q 1141 2309 1028 2070 
Q 916 1831 916 1509 
L 916 0 
L 513 0 
z
" transform="scale(0.015625)"/>
       <path id="CMUBright-Roman-20" transform="scale(0.015625)"/>
       <path id="CMUBright-Roman-66" d="M 178 2700 
L 178 3022 
L 722 3022 
L 722 3431 
Q 722 3597 730 3680 
Q 738 3763 820 3939 
Q 903 4116 1069 4256 
Q 1363 4500 1797 4500 
Q 2022 4500 2322 4447 
L 2322 4084 
Q 2038 4172 1794 4172 
Q 1788 4172 1778 4172 
Q 1522 4172 1320 4067 
Q 1119 3963 1119 3713 
L 1119 3022 
L 1919 3022 
L 1919 2700 
L 1131 2700 
L 1131 0 
L 722 0 
L 722 2700 
L 178 2700 
z
" transform="scale(0.015625)"/>
       <path id="CMUBright-Roman-74" d="M 122 2700 
L 122 3022 
L 738 3022 
L 738 3884 
L 1125 3884 
L 1125 3022 
L 2119 3022 
L 2119 2700 
L 1125 2700 
L 1125 884 
Q 1125 281 1491 281 
Q 1569 281 1639 290 
Q 1709 300 1770 323 
Q 1831 347 1878 365 
Q 1925 384 1973 415 
Q 2022 447 2048 464 
Q 2075 481 2109 512 
Q 2144 544 2150 544 
L 2234 231 
Q 1781 -50 1259 -50 
Q 728 -50 728 838 
L 728 2700 
L 122 2700 
z
" transform="scale(0.015625)"/>
       <path id="CMUBright-Roman-68" d="M 513 0 
L 513 4447 
L 916 4447 
L 916 2694 
L 922 2419 
Q 1025 2663 1258 2867 
Q 1491 3072 1869 3072 
Q 2125 3072 2308 2995 
Q 2491 2919 2580 2816 
Q 2669 2713 2720 2547 
Q 2772 2381 2778 2275 
Q 2784 2169 2784 2016 
L 2784 0 
L 2375 0 
L 2375 1991 
Q 2375 2106 2372 2176 
Q 2369 2247 2330 2369 
Q 2291 2491 2220 2564 
Q 2150 2638 2006 2695 
Q 1863 2753 1656 2753 
Q 1369 2753 1148 2518 
Q 928 2284 928 1678 
L 928 0 
L 513 0 
z
" transform="scale(0.015625)"/>
       <path id="CMUBright-Roman-65" d="M 269 1538 
Q 269 2166 647 2631 
Q 1025 3097 1588 3097 
Q 1784 3097 1967 3036 
Q 2150 2975 2342 2828 
Q 2534 2681 2653 2364 
Q 2772 2047 2772 1600 
L 653 1600 
L 653 1550 
Q 653 969 967 619 
Q 1281 269 1691 269 
Q 2234 269 2725 709 
L 2759 359 
Q 2266 -50 1691 -50 
Q 1103 -50 686 408 
Q 269 866 269 1538 
z
M 684 1856 
L 2425 1856 
Q 2381 2344 2134 2561 
Q 1888 2778 1588 2778 
Q 1263 2778 1009 2515 
Q 756 2253 684 1856 
z
" transform="scale(0.015625)"/>
       <path id="CMUBright-Roman-64" d="M 294 1509 
Q 294 2188 659 2630 
Q 1025 3072 1503 3072 
Q 2016 3072 2381 2625 
L 2381 4447 
L 2784 4447 
L 2784 0 
L 2375 0 
L 2375 269 
L 2369 469 
Q 2016 -50 1459 -50 
Q 966 -50 630 412 
Q 294 875 294 1509 
z
M 709 1509 
Q 709 1138 809 877 
Q 909 616 1065 494 
Q 1222 372 1369 320 
Q 1516 269 1663 269 
Q 2022 269 2259 581 
Q 2278 613 2303 652 
Q 2328 691 2339 706 
Q 2350 722 2359 751 
Q 2369 781 2372 815 
Q 2375 850 2375 903 
L 2375 2253 
Q 2375 2438 2179 2595 
Q 1984 2753 1722 2753 
Q 1619 2753 1503 2726 
Q 1388 2700 1241 2620 
Q 1094 2541 983 2412 
Q 872 2284 790 2046 
Q 709 1809 709 1509 
z
" transform="scale(0.015625)"/>
       <path id="CMUBright-Roman-61" d="M 353 738 
Q 353 897 436 1047 
Q 519 1197 708 1347 
Q 897 1497 1284 1590 
Q 1672 1684 2216 1697 
L 2216 1966 
Q 2216 2381 2041 2578 
Q 1856 2803 1569 2803 
Q 1331 2803 1107 2736 
Q 884 2669 811 2623 
Q 738 2578 556 2472 
L 525 2828 
Q 1044 3103 1575 3103 
Q 2056 3103 2326 2806 
Q 2597 2509 2625 2144 
L 2631 1925 
L 2631 0 
L 2228 0 
L 2228 441 
Q 1834 -50 1116 -50 
Q 1113 -50 1106 -50 
L 1063 -50 
Q 709 -50 531 206 
Q 353 463 353 738 
z
M 750 750 
Q 750 519 951 394 
Q 1153 269 1409 269 
Q 1525 269 1645 297 
Q 1766 325 1903 389 
Q 2041 453 2128 595 
Q 2216 738 2216 928 
L 2216 1497 
Q 1569 1491 1159 1286 
Q 750 1081 750 750 
z
" transform="scale(0.015625)"/>
       <path id="CMUBright-Roman-79" d="M 91 3022 
L 506 3022 
L 1172 1369 
Q 1447 641 1497 416 
Q 1541 722 2431 3022 
L 2834 3022 
L 1575 -250 
Q 1503 -434 1442 -553 
Q 1381 -672 1276 -819 
Q 1172 -966 1022 -1042 
Q 872 -1119 684 -1119 
Q 453 -1119 184 -1075 
L 153 -716 
Q 447 -794 684 -794 
Q 788 -794 873 -748 
Q 959 -703 1007 -665 
Q 1056 -628 1120 -500 
Q 1184 -372 1200 -326 
Q 1216 -281 1288 -103 
Q 1313 -31 1313 6 
Q 1313 38 1275 128 
L 91 3022 
z
" transform="scale(0.015625)"/>
      </defs>
      <use xlink:href="#CMUBright-Roman-48"/>
      <use xlink:href="#CMUBright-Roman-6f" x="70.751953"/>
      <use xlink:href="#CMUBright-Roman-75" x="123.242188"/>
      <use xlink:href="#CMUBright-Roman-72" x="174.902344"/>
      <use xlink:href="#CMUBright-Roman-20" x="209.472656"/>
      <use xlink:href="#CMUBright-Roman-6f" x="242.724609"/>
      <use xlink:href="#CMUBright-Roman-66" x="295.214844"/>
      <use xlink:href="#CMUBright-Roman-20" x="327.294922"/>
      <use xlink:href="#CMUBright-Roman-74" x="360.546875"/>
      <use xlink:href="#CMUBright-Roman-68" x="398.4375"/>
      <use xlink:href="#CMUBright-Roman-65" x="450.097656"/>
      <use xlink:href="#CMUBright-Roman-20" x="496.777344"/>
      <use xlink:href="#CMUBright-Roman-64" x="530.029297"/>
      <use xlink:href="#CMUBright-Roman-61" x="581.689453"/>
      <use xlink:href="#CMUBright-Roman-79" x="630.859375"/>
     </g>
    </g>
   </g>
   <g id="matplotlib.axis_2">
    <g id="ytick_1">
     <g id="line2d_8">
      <defs>
       <path id="m570ea43b22" d="M 0 0 
L -3.5 0 
" style="stroke: #000000; stroke-width: 0.8"/>
      </defs>
      <g>
       <use xlink:href="#m570ea43b22" x="42.150781" y="210.1" style="stroke: #000000; stroke-width: 0.8"/>
      </g>
     </g>
     <g id="text_9">
      <!-- 0 -->
      <g transform="translate(29.902344 213.574219) scale(0.1 -0.1)">
       <use xlink:href="#CMUBright-Roman-30"/>
      </g>
     </g>
    </g>
    <g id="ytick_2">
     <g id="line2d_9">
      <g>
       <use xlink:href="#m570ea43b22" x="42.150781" y="176.836" style="stroke: #000000; stroke-width: 0.8"/>
      </g>
     </g>
     <g id="text_10">
      <!-- 2 -->
      <g transform="translate(29.902344 180.310219) scale(0.1 -0.1)">
       <use xlink:href="#CMUBright-Roman-32"/>
      </g>
     </g>
    </g>
    <g id="ytick_3">
     <g id="line2d_10">
      <g>
       <use xlink:href="#m570ea43b22" x="42.150781" y="143.572" style="stroke: #000000; stroke-width: 0.8"/>
      </g>
     </g>
     <g id="text_11">
      <!-- 4 -->
      <g transform="translate(29.902344 147.046219) scale(0.1 -0.1)">
       <use xlink:href="#CMUBright-Roman-34"/>
      </g>
     </g>
    </g>
    <g id="ytick_4">
     <g id="line2d_11">
      <g>
       <use xlink:href="#m570ea43b22" x="42.150781" y="110.308" style="stroke: #000000; stroke-width: 0.8"/>
      </g>
     </g>
     <g id="text_12">
      <!-- 6 -->
      <g transform="translate(29.902344 113.782219) scale(0.1 -0.1)">
       <use xlink:href="#CMUBright-Roman-36"/>
      </g>
     </g>
    </g>
    <g id="ytick_5">
     <g id="line2d_12">
      <g>
       <use xlink:href="#m570ea43b22" x="42.150781" y="77.044" style="stroke: #000000; stroke-width: 0.8"/>
      </g>
     </g>
     <g id="text_13">
      <!-- 8 -->
      <g transform="translate(29.902344 80.518219) scale(0.1 -0.1)">
       <use xlink:href="#CMUBright-Roman-38"/>
      </g>
     </g>
    </g>
    <g id="ytick_6">
     <g id="line2d_13">
      <g>
       <use xlink:href="#m570ea43b22" x="42.150781" y="43.78" style="stroke: #000000; stroke-width: 0.8"/>
      </g>
     </g>
     <g id="text_14">
      <!-- 10 -->
      <g transform="translate(24.653906 47.254219) scale(0.1 -0.1)">
       <use xlink:href="#CMUBright-Roman-31"/>
       <use xlink:href="#CMUBright-Roman-30" x="52.490234"/>
      </g>
     </g>
    </g>
    <g id="text_15">
     <!-- Energy (GWh) -->
     <g transform="translate(18.432031 158.236094) rotate(-90) scale(0.1 -0.1)">
      <defs>
       <path id="CMUBright-Roman-45" d="M 628 0 
L 628 4434 
L 3622 4434 
L 3622 4097 
L 1075 4097 
L 1075 2478 
L 3438 2478 
L 3438 2138 
L 1075 2138 
L 1075 359 
L 3719 359 
L 3719 0 
L 628 0 
z
" transform="scale(0.015625)"/>
       <path id="CMUBright-Roman-6e" d="M 513 0 
L 513 3022 
L 909 3022 
L 909 2400 
Q 1031 2681 1273 2876 
Q 1516 3072 1869 3072 
Q 2125 3072 2308 2992 
Q 2491 2913 2580 2809 
Q 2669 2706 2720 2540 
Q 2772 2375 2778 2272 
Q 2784 2169 2784 2016 
L 2784 0 
L 2375 0 
L 2375 1991 
Q 2375 2106 2372 2176 
Q 2369 2247 2330 2369 
Q 2291 2491 2220 2564 
Q 2150 2638 2006 2695 
Q 1863 2753 1656 2753 
Q 1369 2753 1148 2518 
Q 928 2284 928 1678 
L 928 0 
L 513 0 
z
" transform="scale(0.015625)"/>
       <path id="CMUBright-Roman-67" d="M 294 1516 
Q 294 2175 675 2623 
Q 1056 3072 1556 3072 
Q 2075 3072 2381 2516 
L 2381 3072 
L 2784 3072 
L 2784 56 
Q 2784 -500 2461 -839 
Q 2138 -1178 1644 -1178 
Q 1056 -1178 459 -891 
L 459 -544 
Q 650 -641 770 -695 
Q 891 -750 1133 -803 
Q 1375 -856 1631 -856 
Q 1931 -856 2153 -626 
Q 2375 -397 2375 78 
L 2375 575 
L 2369 800 
Q 2266 538 2052 323 
Q 1838 109 1484 109 
Q 1003 109 648 515 
Q 294 922 294 1516 
z
M 709 1516 
Q 709 1047 1001 737 
Q 1294 428 1663 428 
Q 1859 428 2007 537 
Q 2156 647 2229 830 
Q 2303 1013 2339 1200 
Q 2375 1388 2375 1600 
L 2381 1600 
L 2381 2022 
Q 2381 2253 2214 2503 
Q 2047 2753 1741 2753 
Q 1331 2753 1020 2393 
Q 709 2034 709 1516 
z
" transform="scale(0.015625)"/>
       <path id="CMUBright-Roman-28" d="M 581 1691 
Q 581 3731 1913 4800 
L 2234 4800 
Q 1928 4513 1772 4313 
Q 991 3294 991 1703 
Q 991 -288 2203 -1394 
Q 2228 -1413 2234 -1422 
L 1913 -1422 
Q 1241 -878 911 -70 
Q 581 738 581 1691 
z
" transform="scale(0.015625)"/>
       <path id="CMUBright-Roman-47" d="M 519 2222 
Q 519 2831 778 3357 
Q 1038 3884 1530 4217 
Q 2022 4550 2638 4550 
L 2650 4550 
Q 3309 4550 3969 4244 
L 3891 3803 
Q 3700 3931 3581 3997 
Q 3463 4063 3203 4138 
Q 2944 4213 2650 4213 
Q 1913 4213 1439 3623 
Q 966 3034 966 2222 
Q 966 1391 1448 811 
Q 1931 231 2625 231 
Q 3041 231 3609 403 
L 3609 1759 
L 2606 1759 
L 2606 2100 
L 4025 2100 
L 4025 206 
Q 3328 -106 2631 -109 
Q 1741 -109 1130 573 
Q 519 1256 519 2222 
z
" transform="scale(0.015625)"/>
       <path id="CMUBright-Roman-57" d="M 91 4447 
L 525 4447 
L 1338 1734 
Q 1669 594 1703 416 
L 1766 691 
L 2113 1894 
L 2875 4447 
L 3322 4447 
L 4025 2131 
Q 4478 569 4513 416 
Q 4531 538 4916 1844 
L 5697 4447 
L 6088 4447 
L 4728 -31 
L 4269 -31 
L 3291 3238 
L 3109 3872 
L 3078 4031 
L 3028 3788 
L 2700 2663 
L 1894 -31 
L 1447 -31 
L 91 4447 
z
" transform="scale(0.015625)"/>
       <path id="CMUBright-Roman-29" d="M 372 -1422 
Q 763 -1069 984 -716 
Q 1613 263 1613 1703 
Q 1613 3694 409 4769 
Q 378 4794 372 4800 
L 691 4800 
Q 1363 4263 1692 3459 
Q 2022 2656 2022 1703 
Q 2022 813 1715 -15 
Q 1409 -844 691 -1422 
L 372 -1422 
z
" transform="scale(0.015625)"/>
      </defs>
      <use xlink:href="#CMUBright-Roman-45"/>
      <use xlink:href="#CMUBright-Roman-6e" x="62.5"/>
      <use xlink:href="#CMUBright-Roman-65" x="114.160156"/>
      <use xlink:href="#CMUBright-Roman-72" x="160.839844"/>
      <use xlink:href="#CMUBright-Roman-67" x="195.410156"/>
      <use xlink:href="#CMUBright-Roman-79" x="247.070312"/>
      <use xlink:href="#CMUBright-Roman-20" x="292.822266"/>
      <use xlink:href="#CMUBright-Roman-28" x="326.074219"/>
      <use xlink:href="#CMUBright-Roman-47" x="366.845703"/>
      <use xlink:href="#CMUBright-Roman-57" x="436.816406"/>
      <use xlink:href="#CMUBright-Roman-68" x="533.496094"/>
      <use xlink:href="#CMUBright-Roman-29" x="585.15625"/>
     </g>
    </g>
   </g>
   <g id="line2d_14">
    <path d="M 42.150781 210.1 
L 45.789912 210.1 
L 45.789912 210.1 
L 53.068173 210.1 
L 53.068173 210.1 
L 60.346433 210.1 
L 60.346433 210.1 
L 67.624694 210.1 
L 67.624694 210.1 
L 74.902955 210.1 
L 74.902955 204.713157 
L 82.181216 204.713157 
L 82.181216 194.767916 
L 89.459477 194.767916 
L 89.459477 180.179872 
L 96.737738 180.179872 
L 96.737738 164.416613 
L 104.015999 164.416613 
L 104.015999 153.790879 
L 111.29426 153.790879 
L 111.29426 148.542169 
L 118.57252 148.542169 
L 118.57252 148.586439 
L 125.850781 148.586439 
L 125.850781 154.073352 
L 133.129042 154.073352 
L 133.129042 165.350924 
L 140.407303 165.350924 
L 140.407303 180.74115 
L 147.685564 180.74115 
L 147.685564 195.002905 
L 154.963825 195.002905 
L 154.963825 204.34655 
L 162.242086 204.34655 
L 162.242086 210.1 
L 169.520346 210.1 
L 169.520346 210.1 
L 176.798607 210.1 
L 176.798607 210.1 
L 184.076868 210.1 
L 184.076868 210.1 
L 191.355129 210.1 
L 191.355129 210.1 
L 198.63339 210.1 
L 198.63339 210.1 
L 205.911651 210.1 
L 205.911651 210.1 
L 209.550781 210.1 
" clip-path="url(#pc6e45e466d)" style="fill: none; stroke: #ffd45b; stroke-width: 2; stroke-linecap: square"/>
   </g>
   <g id="line2d_15">
    <path d="M 42.150781 183.116123 
L 45.789912 183.116123 
L 45.789912 183.840721 
L 53.068173 183.840721 
L 53.068173 184.420422 
L 60.346433 184.420422 
L 60.346433 185.331316 
L 67.624694 185.331316 
L 67.624694 186.248451 
L 74.902955 186.248451 
L 74.902955 186.700441 
L 82.181216 186.700441 
L 82.181216 187.127172 
L 89.459477 187.127172 
L 89.459477 188.861124 
L 96.737738 188.861124 
L 96.737738 191.483778 
L 104.015999 191.483778 
L 104.015999 194.115141 
L 111.29426 194.115141 
L 111.29426 196.673099 
L 118.57252 196.673099 
L 118.57252 198.4443 
L 125.850781 198.4443 
L 125.850781 199.274199 
L 133.129042 199.274199 
L 133.129042 199.155725 
L 140.407303 199.155725 
L 140.407303 198.86122 
L 147.685564 198.86122 
L 147.685564 197.473682 
L 154.963825 197.473682 
L 154.963825 195.442994 
L 162.242086 195.442994 
L 162.242086 192.561659 
L 169.520346 192.561659 
L 169.520346 190.827624 
L 176.798607 190.827624 
L 176.798607 189.908395 
L 184.076868 189.908395 
L 184.076868 189.303698 
L 191.355129 189.303698 
L 191.355129 188.519548 
L 198.63339 188.519548 
L 198.63339 187.359331 
L 205.911651 187.359331 
L 205.911651 186.289053 
L 209.550781 186.289053 
" clip-path="url(#pc6e45e466d)" style="fill: none; stroke: #db9671; stroke-width: 2; stroke-linecap: square"/>
   </g>
   <g id="line2d_16">
    <path d="M 42.150781 201.307127 
L 45.789912 201.307127 
L 45.789912 203.821447 
L 53.068173 203.821447 
L 53.068173 205.587186 
L 60.346433 205.587186 
L 60.346433 206.831273 
L 67.624694 206.831273 
L 67.624694 207.391495 
L 74.902955 207.391495 
L 74.902955 206.012929 
L 82.181216 206.012929 
L 82.181216 199.317824 
L 89.459477 199.317824 
L 89.459477 191.621446 
L 96.737738 191.621446 
L 96.737738 189.264897 
L 104.015999 189.264897 
L 104.015999 191.251097 
L 111.29426 191.251097 
L 111.29426 194.032929 
L 118.57252 194.032929 
L 118.57252 194.537807 
L 125.850781 194.537807 
L 125.850781 193.649448 
L 133.129042 193.649448 
L 133.129042 192.621551 
L 140.407303 192.621551 
L 140.407303 193.906024 
L 147.685564 193.906024 
L 147.685564 194.779643 
L 154.963825 194.779643 
L 154.963825 191.627922 
L 162.242086 191.627922 
L 162.242086 185.136592 
L 169.520346 185.136592 
L 169.520346 180.757839 
L 176.798607 180.757839 
L 176.798607 180.779983 
L 184.076868 180.779983 
L 184.076868 186.29877 
L 191.355129 186.29877 
L 191.355129 191.91684 
L 198.63339 191.91684 
L 198.63339 195.220763 
L 205.911651 195.220763 
L 205.911651 197.884791 
L 209.550781 197.884791 
" clip-path="url(#pc6e45e466d)" style="fill: none; stroke: #8d5eaa; stroke-width: 2; stroke-linecap: square"/>
   </g>
   <g id="line2d_17">
    <path d="M 42.150781 165.299356 
L 45.789912 165.299356 
L 45.789912 166.913422 
L 53.068173 166.913422 
L 53.068173 167.095966 
L 60.346433 167.095966 
L 60.346433 166.852309 
L 67.624694 166.852309 
L 67.624694 160.36256 
L 74.902955 160.36256 
L 74.902955 90.782886 
L 82.181216 90.782886 
L 82.181216 125.380454 
L 89.459477 125.380454 
L 89.459477 144.685499 
L 96.737738 144.685499 
L 96.737738 145.319402 
L 104.015999 145.319402 
L 104.015999 141.647616 
L 111.29426 141.647616 
L 111.29426 142.274245 
L 118.57252 142.274245 
L 118.57252 85.74399 
L 125.850781 85.74399 
L 125.850781 118.56634 
L 133.129042 118.56634 
L 133.129042 142.429051 
L 140.407303 142.429051 
L 140.407303 143.394548 
L 147.685564 143.394548 
L 147.685564 143.542545 
L 154.963825 143.542545 
L 154.963825 120.580677 
L 162.242086 120.580677 
L 162.242086 84.53028 
L 169.520346 84.53028 
L 169.520346 88.290313 
L 176.798607 88.290313 
L 176.798607 134.042077 
L 184.076868 134.042077 
L 184.076868 137.896346 
L 191.355129 137.896346 
L 191.355129 156.379431 
L 198.63339 156.379431 
L 198.63339 160.493249 
L 205.911651 160.493249 
L 205.911651 147.98152 
L 209.550781 147.98152 
" clip-path="url(#pc6e45e466d)" style="fill: none; stroke: #0033b0; stroke-width: 2; stroke-linecap: square"/>
   </g>
   <g id="patch_3">
    <path d="M 42.150781 210.1 
L 42.150781 43.78 
" style="fill: none; stroke: #000000; stroke-width: 0.8; stroke-linejoin: miter; stroke-linecap: square"/>
   </g>
   <g id="patch_4">
    <path d="M 209.550781 210.1 
L 209.550781 43.78 
" style="fill: none; stroke: #000000; stroke-width: 0.8; stroke-linejoin: miter; stroke-linecap: square"/>
   </g>
   <g id="patch_5">
    <path d="M 42.150781 210.1 
L 209.550781 210.1 
" style="fill: none; stroke: #000000; stroke-width: 0.8; stroke-linejoin: miter; stroke-linecap: square"/>
   </g>
   <g id="patch_6">
    <path d="M 42.150781 43.78 
L 209.550781 43.78 
" style="fill: none; stroke: #000000; stroke-width: 0.8; stroke-linejoin: miter; stroke-linecap: square"/>
   </g>
   <g id="legend_1">
    <g id="line2d_18">
     <path d="M 11.2 14.809375 
L 16.2 14.809375 
L 16.2 14.809375 
L 26.2 14.809375 
L 26.2 14.809375 
L 31.2 14.809375 
" style="fill: none; stroke: #ffd45b; stroke-width: 2; stroke-linecap: square"/>
    </g>
    <g id="text_16">
     <!-- PV Generation -->
     <g transform="translate(39.2 18.309375) scale(0.1 -0.1)">
      <defs>
       <path id="CMUBright-Roman-50" d="M 628 0 
L 628 4447 
L 2150 4447 
Q 2738 4447 3156 4219 
Q 3475 4041 3654 3758 
Q 3834 3475 3834 3163 
Q 3834 2956 3740 2745 
Q 3647 2534 3462 2336 
Q 3278 2138 2937 2013 
Q 2597 1888 2163 1888 
L 1075 1888 
L 1075 0 
L 628 0 
z
M 1069 2222 
L 2081 2222 
Q 2478 2222 2759 2311 
Q 3041 2400 3172 2553 
Q 3303 2706 3358 2850 
Q 3413 2994 3413 3163 
Q 3413 3322 3358 3469 
Q 3303 3616 3168 3769 
Q 3034 3922 2756 4012 
Q 2478 4103 2081 4103 
L 1069 4103 
L 1069 2222 
z
" transform="scale(0.015625)"/>
       <path id="CMUBright-Roman-56" d="M 91 4447 
L 563 4447 
L 2094 647 
L 2175 416 
L 2731 1825 
L 3794 4447 
L 4219 4447 
L 2406 -31 
L 1906 -31 
L 91 4447 
z
" transform="scale(0.015625)"/>
       <path id="CMUBright-Roman-69" d="M 513 0 
L 513 3022 
L 916 3022 
L 916 0 
L 513 0 
z
M 513 4038 
L 513 4441 
L 916 4441 
L 916 4038 
L 513 4038 
z
" transform="scale(0.015625)"/>
      </defs>
      <use xlink:href="#CMUBright-Roman-50"/>
      <use xlink:href="#CMUBright-Roman-56" x="65.771484"/>
      <use xlink:href="#CMUBright-Roman-20" x="133.251953"/>
      <use xlink:href="#CMUBright-Roman-47" x="166.503906"/>
      <use xlink:href="#CMUBright-Roman-65" x="236.474609"/>
      <use xlink:href="#CMUBright-Roman-6e" x="283.154297"/>
      <use xlink:href="#CMUBright-Roman-65" x="334.814453"/>
      <use xlink:href="#CMUBright-Roman-72" x="381.494141"/>
      <use xlink:href="#CMUBright-Roman-61" x="416.064453"/>
      <use xlink:href="#CMUBright-Roman-74" x="465.234375"/>
      <use xlink:href="#CMUBright-Roman-69" x="503.125"/>
      <use xlink:href="#CMUBright-Roman-6f" x="525.585938"/>
      <use xlink:href="#CMUBright-Roman-6e" x="578.076172"/>
     </g>
    </g>
    <g id="line2d_19">
     <path d="M 11.2 28.589063 
L 16.2 28.589063 
L 16.2 28.589063 
L 26.2 28.589063 
L 26.2 28.589063 
L 31.2 28.589063 
" style="fill: none; stroke: #db9671; stroke-width: 2; stroke-linecap: square"/>
    </g>
    <g id="text_17">
     <!-- HP Consumption -->
     <g transform="translate(39.2 32.089063) scale(0.1 -0.1)">
      <defs>
       <path id="CMUBright-Roman-43" d="M 778 1084 
Q 519 1613 519 2220 
Q 519 2828 778 3356 
Q 1038 3884 1533 4217 
Q 2028 4550 2644 4550 
Q 3253 4550 3878 4331 
L 3794 3891 
Q 3597 4000 3484 4051 
Q 3372 4103 3136 4158 
Q 2900 4213 2638 4213 
Q 1922 4213 1444 3627 
Q 966 3041 966 2222 
Q 966 1416 1439 823 
Q 1913 231 2644 231 
Q 2969 231 3222 298 
Q 3475 366 3567 412 
Q 3659 459 3916 622 
L 3950 250 
Q 3719 122 3591 61 
Q 3463 0 3213 -54 
Q 2963 -109 2644 -109 
Q 2028 -109 1533 223 
Q 1038 556 778 1084 
z
" transform="scale(0.015625)"/>
       <path id="CMUBright-Roman-73" d="M 184 250 
L 250 622 
Q 788 281 1325 281 
Q 1716 281 1881 442 
Q 2047 603 2047 806 
Q 2047 997 1909 1119 
Q 1772 1241 1606 1300 
Q 1534 1319 1234 1373 
Q 934 1428 726 1523 
Q 519 1619 372 1819 
Q 225 2025 225 2253 
Q 225 2400 272 2531 
Q 319 2663 428 2800 
Q 538 2938 764 3020 
Q 991 3103 1313 3103 
L 1331 3103 
Q 1819 3103 2303 2888 
L 2241 2534 
Q 1747 2784 1269 2784 
Q 891 2784 742 2634 
Q 594 2484 594 2303 
Q 594 2163 697 2038 
Q 800 1913 997 1856 
Q 1034 1844 1342 1783 
Q 1650 1722 1759 1684 
Q 2028 1588 2223 1373 
Q 2419 1159 2419 844 
Q 2419 497 2172 223 
Q 1925 -50 1329 -50 
Q 734 -50 184 250 
z
" transform="scale(0.015625)"/>
       <path id="CMUBright-Roman-6d" d="M 513 0 
L 513 3022 
L 909 3022 
L 909 2400 
Q 1013 2650 1252 2861 
Q 1491 3072 1875 3072 
Q 2138 3072 2320 2998 
Q 2503 2925 2592 2797 
Q 2681 2669 2711 2595 
Q 2741 2522 2766 2413 
Q 2772 2394 2772 2388 
Q 2888 2650 3123 2861 
Q 3359 3072 3744 3072 
Q 4000 3072 4183 2992 
Q 4366 2913 4455 2813 
Q 4544 2713 4592 2544 
Q 4641 2375 4647 2272 
Q 4653 2169 4653 2016 
L 4653 0 
L 4244 0 
L 4244 1991 
Q 4244 2106 4237 2176 
Q 4231 2247 4192 2369 
Q 4153 2491 4083 2564 
Q 4013 2638 3869 2695 
Q 3725 2753 3519 2753 
Q 3172 2753 2981 2470 
Q 2791 2188 2791 1728 
L 2791 0 
L 2375 0 
L 2375 1991 
Q 2375 2106 2372 2176 
Q 2369 2247 2330 2369 
Q 2291 2491 2220 2564 
Q 2150 2638 2006 2695 
Q 1863 2753 1656 2753 
Q 1309 2753 1115 2470 
Q 922 2188 922 1728 
Q 922 1716 925 1703 
Q 928 1691 928 1678 
L 928 0 
L 513 0 
z
" transform="scale(0.015625)"/>
       <path id="CMUBright-Roman-70" d="M 513 -1069 
L 513 3022 
L 916 3022 
L 916 2584 
Q 1319 3072 1888 3072 
Q 2356 3072 2679 2620 
Q 3003 2169 3003 1522 
Q 3003 825 2622 387 
Q 2241 -50 1753 -50 
Q 1528 -50 1326 61 
Q 1125 172 1075 236 
Q 1025 300 928 422 
L 928 -1069 
L 513 -1069 
z
M 928 831 
Q 928 634 1111 451 
Q 1294 269 1556 269 
Q 1972 269 2281 630 
Q 2591 991 2591 1516 
Q 2591 2022 2303 2384 
Q 2016 2747 1619 2747 
Q 1288 2747 1056 2491 
Q 959 2369 943 2333 
Q 928 2297 928 2188 
L 928 831 
z
" transform="scale(0.015625)"/>
      </defs>
      <use xlink:href="#CMUBright-Roman-48"/>
      <use xlink:href="#CMUBright-Roman-50" x="70.751953"/>
      <use xlink:href="#CMUBright-Roman-20" x="136.523438"/>
      <use xlink:href="#CMUBright-Roman-43" x="169.775391"/>
      <use xlink:href="#CMUBright-Roman-6f" x="236.865234"/>
      <use xlink:href="#CMUBright-Roman-6e" x="289.355469"/>
      <use xlink:href="#CMUBright-Roman-73" x="341.015625"/>
      <use xlink:href="#CMUBright-Roman-75" x="381.201172"/>
      <use xlink:href="#CMUBright-Roman-6d" x="432.861328"/>
      <use xlink:href="#CMUBright-Roman-70" x="513.623047"/>
      <use xlink:href="#CMUBright-Roman-74" x="565.283203"/>
      <use xlink:href="#CMUBright-Roman-69" x="603.173828"/>
      <use xlink:href="#CMUBright-Roman-6f" x="625.634766"/>
      <use xlink:href="#CMUBright-Roman-6e" x="678.125"/>
     </g>
    </g>
    <g id="line2d_20">
     <path d="M 132.176563 14.809375 
L 137.176563 14.809375 
L 137.176563 14.809375 
L 147.176563 14.809375 
L 147.176563 14.809375 
L 152.176563 14.809375 
" style="fill: none; stroke: #8d5eaa; stroke-width: 2; stroke-linecap: square"/>
    </g>
    <g id="text_18">
     <!-- EV Consumption -->
     <g transform="translate(160.176563 18.309375) scale(0.1 -0.1)">
      <use xlink:href="#CMUBright-Roman-45"/>
      <use xlink:href="#CMUBright-Roman-56" x="62.5"/>
      <use xlink:href="#CMUBright-Roman-20" x="129.980469"/>
      <use xlink:href="#CMUBright-Roman-43" x="163.232422"/>
      <use xlink:href="#CMUBright-Roman-6f" x="230.322266"/>
      <use xlink:href="#CMUBright-Roman-6e" x="282.8125"/>
      <use xlink:href="#CMUBright-Roman-73" x="334.472656"/>
      <use xlink:href="#CMUBright-Roman-75" x="374.658203"/>
      <use xlink:href="#CMUBright-Roman-6d" x="426.318359"/>
      <use xlink:href="#CMUBright-Roman-70" x="507.080078"/>
      <use xlink:href="#CMUBright-Roman-74" x="558.740234"/>
      <use xlink:href="#CMUBright-Roman-69" x="596.630859"/>
      <use xlink:href="#CMUBright-Roman-6f" x="619.091797"/>
      <use xlink:href="#CMUBright-Roman-6e" x="671.582031"/>
     </g>
    </g>
    <g id="line2d_21">
     <path d="M 132.176563 28.589063 
L 137.176563 28.589063 
L 137.176563 28.589063 
L 147.176563 28.589063 
L 147.176563 28.589063 
L 152.176563 28.589063 
" style="fill: none; stroke: #0033b0; stroke-width: 2; stroke-linecap: square"/>
    </g>
    <g id="text_19">
     <!-- Load Consumption -->
     <g transform="translate(160.176563 32.089063) scale(0.1 -0.1)">
      <defs>
       <path id="CMUBright-Roman-4c" d="M 628 0 
L 628 4447 
L 1075 4447 
L 1075 341 
L 3347 341 
L 3347 0 
L 628 0 
z
" transform="scale(0.015625)"/>
      </defs>
      <use xlink:href="#CMUBright-Roman-4c"/>
      <use xlink:href="#CMUBright-Roman-6f" x="56.689453"/>
      <use xlink:href="#CMUBright-Roman-61" x="109.179688"/>
      <use xlink:href="#CMUBright-Roman-64" x="158.349609"/>
      <use xlink:href="#CMUBright-Roman-20" x="210.009766"/>
      <use xlink:href="#CMUBright-Roman-43" x="243.261719"/>
      <use xlink:href="#CMUBright-Roman-6f" x="310.351562"/>
      <use xlink:href="#CMUBright-Roman-6e" x="362.841797"/>
      <use xlink:href="#CMUBright-Roman-73" x="414.501953"/>
      <use xlink:href="#CMUBright-Roman-75" x="454.6875"/>
      <use xlink:href="#CMUBright-Roman-6d" x="506.347656"/>
      <use xlink:href="#CMUBright-Roman-70" x="587.109375"/>
      <use xlink:href="#CMUBright-Roman-74" x="638.769531"/>
      <use xlink:href="#CMUBright-Roman-69" x="676.660156"/>
      <use xlink:href="#CMUBright-Roman-6f" x="699.121094"/>
      <use xlink:href="#CMUBright-Roman-6e" x="751.611328"/>
     </g>
    </g>
   </g>
  </g>
 </g>
 <defs>
  <clipPath id="pc6e45e466d">
   <rect x="42.150781" y="43.78" width="167.4" height="166.32"/>
  </clipPath>
 </defs>
</svg>
