<?xml version="1.0" encoding="utf-8" standalone="no"?>
<!DOCTYPE svg PUBLIC "-//W3C//DTD SVG 1.1//EN"
  "http://www.w3.org/Graphics/SVG/1.1/DTD/svg11.dtd">
<svg xmlns:xlink="http://www.w3.org/1999/xlink" width="213.01875pt" height="199.812969pt" viewBox="0 0 213.01875 199.812969" xmlns="http://www.w3.org/2000/svg" version="1.1">
 <metadata>
  <rdf:RDF xmlns:dc="http://purl.org/dc/elements/1.1/" xmlns:cc="http://creativecommons.org/ns#" xmlns:rdf="http://www.w3.org/1999/02/22-rdf-syntax-ns#">
   <cc:Work>
    <dc:type rdf:resource="http://purl.org/dc/dcmitype/StillImage"/>
    <dc:date>2025-05-09T15:39:49.523185</dc:date>
    <dc:format>image/svg+xml</dc:format>
    <dc:creator>
     <cc:Agent>
      <dc:title>Matplotlib v3.9.0, https://matplotlib.org/</dc:title>
     </cc:Agent>
    </dc:creator>
   </cc:Work>
  </rdf:RDF>
 </metadata>
 <defs>
  <style type="text/css">*{stroke-linejoin: round; stroke-linecap: butt}</style>
 </defs>
 <g id="figure_1">
  <g id="patch_1">
   <path d="M 0 199.812969 
L 213.01875 199.812969 
L 213.01875 0 
L 0 0 
z
" style="fill: #ffffff"/>
  </g>
  <g id="axes_1">
   <g id="patch_2">
    <path d="M 38.41875 176.994219 
L 205.81875 176.994219 
L 205.81875 10.674219 
L 38.41875 10.674219 
z
" style="fill: #ffffff"/>
   </g>
   <g id="matplotlib.axis_1">
    <g id="xtick_1">
     <g id="line2d_1">
      <defs>
       <path id="m214e0f785e" d="M 0 0 
L 0 3.5 
" style="stroke: #000000; stroke-width: 0.8"/>
      </defs>
      <g>
       <use xlink:href="#m214e0f785e" x="59.34375" y="176.994219" style="stroke: #000000; stroke-width: 0.8"/>
      </g>
     </g>
     <g id="text_1">
      <!-- PV -->
      <g transform="translate(52.68125 190.942656) scale(0.1 -0.1)">
       <defs>
        <path id="CMUBright-Roman-50" d="M 628 0 
L 628 4447 
L 2150 4447 
Q 2738 4447 3156 4219 
Q 3475 4041 3654 3758 
Q 3834 3475 3834 3163 
Q 3834 2956 3740 2745 
Q 3647 2534 3462 2336 
Q 3278 2138 2937 2013 
Q 2597 1888 2163 1888 
L 1075 1888 
L 1075 0 
L 628 0 
z
M 1069 2222 
L 2081 2222 
Q 2478 2222 2759 2311 
Q 3041 2400 3172 2553 
Q 3303 2706 3358 2850 
Q 3413 2994 3413 3163 
Q 3413 3322 3358 3469 
Q 3303 3616 3168 3769 
Q 3034 3922 2756 4012 
Q 2478 4103 2081 4103 
L 1069 4103 
L 1069 2222 
z
" transform="scale(0.015625)"/>
        <path id="CMUBright-Roman-56" d="M 91 4447 
L 563 4447 
L 2094 647 
L 2175 416 
L 2731 1825 
L 3794 4447 
L 4219 4447 
L 2406 -31 
L 1906 -31 
L 91 4447 
z
" transform="scale(0.015625)"/>
       </defs>
       <use xlink:href="#CMUBright-Roman-50"/>
       <use xlink:href="#CMUBright-Roman-56" x="65.771484"/>
      </g>
     </g>
    </g>
    <g id="xtick_2">
     <g id="line2d_2">
      <g>
       <use xlink:href="#m214e0f785e" x="101.19375" y="176.994219" style="stroke: #000000; stroke-width: 0.8"/>
      </g>
     </g>
     <g id="text_2">
      <!-- HP -->
      <g transform="translate(94.367969 190.942656) scale(0.1 -0.1)">
       <defs>
        <path id="CMUBright-Roman-48" d="M 628 0 
L 628 4447 
L 1075 4447 
L 1075 2484 
L 3450 2484 
L 3450 4447 
L 3897 4447 
L 3897 0 
L 3450 0 
L 3450 2144 
L 1075 2144 
L 1075 0 
L 628 0 
z
" transform="scale(0.015625)"/>
       </defs>
       <use xlink:href="#CMUBright-Roman-48"/>
       <use xlink:href="#CMUBright-Roman-50" x="70.751953"/>
      </g>
     </g>
    </g>
    <g id="xtick_3">
     <g id="line2d_3">
      <g>
       <use xlink:href="#m214e0f785e" x="143.04375" y="176.994219" style="stroke: #000000; stroke-width: 0.8"/>
      </g>
     </g>
     <g id="text_3">
      <!-- EV -->
      <g transform="translate(136.544531 190.942656) scale(0.1 -0.1)">
       <defs>
        <path id="CMUBright-Roman-45" d="M 628 0 
L 628 4434 
L 3622 4434 
L 3622 4097 
L 1075 4097 
L 1075 2478 
L 3438 2478 
L 3438 2138 
L 1075 2138 
L 1075 359 
L 3719 359 
L 3719 0 
L 628 0 
z
" transform="scale(0.015625)"/>
       </defs>
       <use xlink:href="#CMUBright-Roman-45"/>
       <use xlink:href="#CMUBright-Roman-56" x="62.5"/>
      </g>
     </g>
    </g>
    <g id="xtick_4">
     <g id="line2d_4">
      <g>
       <use xlink:href="#m214e0f785e" x="184.89375" y="176.994219" style="stroke: #000000; stroke-width: 0.8"/>
      </g>
     </g>
     <g id="text_4">
      <!-- Load -->
      <g transform="translate(174.39375 190.942656) scale(0.1 -0.1)">
       <defs>
        <path id="CMUBright-Roman-4c" d="M 628 0 
L 628 4447 
L 1075 4447 
L 1075 341 
L 3347 341 
L 3347 0 
L 628 0 
z
" transform="scale(0.015625)"/>
        <path id="CMUBright-Roman-6f" d="M 256 1509 
Q 256 2181 675 2639 
Q 1094 3097 1678 3097 
Q 2272 3097 2681 2626 
Q 3091 2156 3091 1509 
Q 3091 838 2669 394 
Q 2247 -50 1678 -50 
Q 1091 -50 673 406 
Q 256 863 256 1509 
z
M 666 1588 
Q 666 1191 772 916 
Q 878 641 1047 512 
Q 1216 384 1369 332 
Q 1522 281 1678 281 
Q 1844 281 2006 342 
Q 2169 403 2330 537 
Q 2491 672 2586 937 
Q 2681 1203 2681 1569 
Q 2681 1916 2586 2164 
Q 2491 2413 2330 2541 
Q 2169 2669 2006 2723 
Q 1844 2778 1676 2778 
Q 1509 2778 1346 2723 
Q 1184 2669 1023 2544 
Q 863 2419 764 2173 
Q 666 1928 666 1588 
z
" transform="scale(0.015625)"/>
        <path id="CMUBright-Roman-61" d="M 353 738 
Q 353 897 436 1047 
Q 519 1197 708 1347 
Q 897 1497 1284 1590 
Q 1672 1684 2216 1697 
L 2216 1966 
Q 2216 2381 2041 2578 
Q 1856 2803 1569 2803 
Q 1331 2803 1107 2736 
Q 884 2669 811 2623 
Q 738 2578 556 2472 
L 525 2828 
Q 1044 3103 1575 3103 
Q 2056 3103 2326 2806 
Q 2597 2509 2625 2144 
L 2631 1925 
L 2631 0 
L 2228 0 
L 2228 441 
Q 1834 -50 1116 -50 
Q 1113 -50 1106 -50 
L 1063 -50 
Q 709 -50 531 206 
Q 353 463 353 738 
z
M 750 750 
Q 750 519 951 394 
Q 1153 269 1409 269 
Q 1525 269 1645 297 
Q 1766 325 1903 389 
Q 2041 453 2128 595 
Q 2216 738 2216 928 
L 2216 1497 
Q 1569 1491 1159 1286 
Q 750 1081 750 750 
z
" transform="scale(0.015625)"/>
        <path id="CMUBright-Roman-64" d="M 294 1509 
Q 294 2188 659 2630 
Q 1025 3072 1503 3072 
Q 2016 3072 2381 2625 
L 2381 4447 
L 2784 4447 
L 2784 0 
L 2375 0 
L 2375 269 
L 2369 469 
Q 2016 -50 1459 -50 
Q 966 -50 630 412 
Q 294 875 294 1509 
z
M 709 1509 
Q 709 1138 809 877 
Q 909 616 1065 494 
Q 1222 372 1369 320 
Q 1516 269 1663 269 
Q 2022 269 2259 581 
Q 2278 613 2303 652 
Q 2328 691 2339 706 
Q 2350 722 2359 751 
Q 2369 781 2372 815 
Q 2375 850 2375 903 
L 2375 2253 
Q 2375 2438 2179 2595 
Q 1984 2753 1722 2753 
Q 1619 2753 1503 2726 
Q 1388 2700 1241 2620 
Q 1094 2541 983 2412 
Q 872 2284 790 2046 
Q 709 1809 709 1509 
z
" transform="scale(0.015625)"/>
       </defs>
       <use xlink:href="#CMUBright-Roman-4c"/>
       <use xlink:href="#CMUBright-Roman-6f" x="56.689453"/>
       <use xlink:href="#CMUBright-Roman-61" x="109.179688"/>
       <use xlink:href="#CMUBright-Roman-64" x="158.349609"/>
      </g>
     </g>
    </g>
   </g>
   <g id="matplotlib.axis_2">
    <g id="ytick_1">
     <g id="line2d_5">
      <defs>
       <path id="mb57356fe24" d="M 0 0 
L -3.5 0 
" style="stroke: #000000; stroke-width: 0.8"/>
      </defs>
      <g>
       <use xlink:href="#mb57356fe24" x="38.41875" y="176.994219" style="stroke: #000000; stroke-width: 0.8"/>
      </g>
     </g>
     <g id="text_5">
      <!-- 0 -->
      <g transform="translate(26.170313 180.468437) scale(0.1 -0.1)">
       <defs>
        <path id="CMUBright-Roman-30" d="M 331 1984 
L 331 2088 
Q 331 2294 339 2439 
Q 347 2584 372 2831 
Q 397 3078 461 3267 
Q 525 3456 620 3657 
Q 716 3859 880 4006 
Q 1044 4153 1259 4231 
Q 1444 4303 1678 4300 
Q 1856 4300 2025 4256 
Q 2194 4213 2380 4070 
Q 2566 3928 2703 3708 
Q 2841 3488 2931 3103 
Q 3022 2719 3022 2216 
Q 3022 1684 2983 1348 
Q 2944 1013 2803 684 
Q 2619 250 2308 70 
Q 1997 -109 1678 -109 
Q 1500 -109 1329 -64 
Q 1159 -19 973 122 
Q 788 263 650 483 
Q 513 703 422 1090 
Q 331 1478 331 1984 
z
M 744 2413 
Q 744 2375 747 2326 
Q 750 2278 750 2272 
L 750 2150 
Q 750 1778 759 1548 
Q 769 1319 839 1014 
Q 909 709 1038 538 
Q 1288 219 1678 219 
Q 2088 219 2328 556 
Q 2450 728 2517 1036 
Q 2584 1344 2595 1567 
Q 2606 1791 2606 2163 
L 2606 2272 
Q 2606 2278 2609 2323 
Q 2613 2369 2613 2406 
Q 2613 3303 2338 3659 
Q 2100 3978 1678 3981 
Q 1244 3981 1006 3641 
Q 744 3263 744 2413 
z
" transform="scale(0.015625)"/>
       </defs>
       <use xlink:href="#CMUBright-Roman-30"/>
      </g>
     </g>
    </g>
    <g id="ytick_2">
     <g id="line2d_6">
      <g>
       <use xlink:href="#mb57356fe24" x="38.41875" y="143.730219" style="stroke: #000000; stroke-width: 0.8"/>
      </g>
     </g>
     <g id="text_6">
      <!-- 2 -->
      <g transform="translate(26.170313 147.204438) scale(0.1 -0.1)">
       <defs>
        <path id="CMUBright-Roman-32" d="M 275 3225 
Q 594 4300 1588 4300 
L 1594 4300 
Q 2216 4294 2619 3923 
Q 3022 3553 3022 2988 
Q 3022 2744 2937 2530 
Q 2853 2316 2668 2114 
Q 2484 1913 2384 1820 
Q 2284 1728 2059 1550 
Q 1753 1300 1640 1203 
Q 1528 1106 697 359 
L 3022 359 
L 3022 0 
L 331 0 
L 331 341 
L 1684 1563 
Q 2144 1966 2367 2278 
Q 2591 2591 2591 2981 
Q 2591 3416 2278 3689 
Q 1966 3963 1497 3963 
Q 1069 3963 855 3694 
Q 641 3425 513 2938 
L 275 3225 
z
" transform="scale(0.015625)"/>
       </defs>
       <use xlink:href="#CMUBright-Roman-32"/>
      </g>
     </g>
    </g>
    <g id="ytick_3">
     <g id="line2d_7">
      <g>
       <use xlink:href="#mb57356fe24" x="38.41875" y="110.466219" style="stroke: #000000; stroke-width: 0.8"/>
      </g>
     </g>
     <g id="text_7">
      <!-- 4 -->
      <g transform="translate(26.170313 113.940438) scale(0.1 -0.1)">
       <defs>
        <path id="CMUBright-Roman-34" d="M 184 1159 
L 184 1503 
L 1953 4250 
L 2438 4250 
L 2438 1497 
L 3169 1497 
L 3169 1159 
L 2438 1159 
L 2438 0 
L 2034 0 
L 2034 1159 
L 184 1159 
z
M 603 1497 
L 2053 1497 
L 2053 3884 
Q 1969 3666 1606 3084 
L 603 1497 
z
" transform="scale(0.015625)"/>
       </defs>
       <use xlink:href="#CMUBright-Roman-34"/>
      </g>
     </g>
    </g>
    <g id="ytick_4">
     <g id="line2d_8">
      <g>
       <use xlink:href="#mb57356fe24" x="38.41875" y="77.202219" style="stroke: #000000; stroke-width: 0.8"/>
      </g>
     </g>
     <g id="text_8">
      <!-- 6 -->
      <g transform="translate(26.170313 80.676438) scale(0.1 -0.1)">
       <defs>
        <path id="CMUBright-Roman-36" d="M 347 2059 
Q 347 3072 864 3686 
Q 1381 4300 2075 4300 
L 2088 4300 
Q 2428 4300 2797 4178 
L 2797 3847 
Q 2375 3981 2075 3981 
L 2059 3981 
Q 1478 3981 1123 3492 
Q 769 3003 769 2209 
Q 769 2197 772 2167 
Q 775 2138 775 2125 
Q 928 2444 1239 2666 
Q 1550 2888 1953 2888 
Q 2388 2888 2681 2484 
Q 3006 2031 3009 1409 
Q 3009 769 2619 325 
Q 2241 -109 1691 -109 
Q 1513 -109 1342 -57 
Q 1172 -6 986 141 
Q 800 288 662 522 
Q 525 756 436 1151 
Q 347 1547 347 2059 
z
M 794 1388 
Q 813 1169 855 1003 
Q 897 838 986 642 
Q 1075 447 1254 336 
Q 1434 225 1691 225 
Q 2138 225 2381 550 
Q 2516 734 2550 920 
Q 2584 1106 2584 1434 
Q 2584 1647 2571 1776 
Q 2559 1906 2479 2089 
Q 2400 2272 2253 2400 
Q 2056 2566 1728 2566 
Q 1325 2566 1062 2266 
Q 800 1966 800 1556 
Q 800 1441 806 1388 
L 794 1388 
z
" transform="scale(0.015625)"/>
       </defs>
       <use xlink:href="#CMUBright-Roman-36"/>
      </g>
     </g>
    </g>
    <g id="ytick_5">
     <g id="line2d_9">
      <g>
       <use xlink:href="#mb57356fe24" x="38.41875" y="43.938219" style="stroke: #000000; stroke-width: 0.8"/>
      </g>
     </g>
     <g id="text_9">
      <!-- 8 -->
      <g transform="translate(26.170313 47.412438) scale(0.1 -0.1)">
       <defs>
        <path id="CMUBright-Roman-38" d="M 275 1159 
Q 275 1519 519 1819 
Q 763 2119 1247 2266 
Q 906 2350 639 2598 
Q 372 2847 372 3206 
Q 372 3641 745 3970 
Q 1119 4300 1678 4300 
Q 2222 4300 2601 3979 
Q 2981 3659 2981 3213 
Q 2981 2919 2786 2684 
Q 2591 2450 2284 2322 
L 2100 2266 
Q 2466 2175 2769 1884 
Q 3072 1594 3072 1159 
Q 3072 647 2665 269 
Q 2259 -109 1672 -109 
Q 1078 -109 676 275 
Q 275 659 275 1159 
z
M 697 1159 
Q 697 706 969 465 
Q 1241 225 1672 225 
Q 2119 225 2384 470 
Q 2650 716 2650 1166 
Q 2650 1619 2372 1862 
Q 2094 2106 1672 2106 
Q 1281 2106 989 1879 
Q 697 1653 697 1159 
z
M 756 3206 
Q 756 2888 982 2656 
Q 1209 2425 1672 2425 
Q 2094 2425 2342 2633 
Q 2591 2841 2591 3206 
Q 2591 3506 2386 3743 
Q 2181 3981 1684 3981 
Q 1172 3981 964 3743 
Q 756 3506 756 3206 
z
" transform="scale(0.015625)"/>
       </defs>
       <use xlink:href="#CMUBright-Roman-38"/>
      </g>
     </g>
    </g>
    <g id="ytick_6">
     <g id="line2d_10">
      <g>
       <use xlink:href="#mb57356fe24" x="38.41875" y="10.674219" style="stroke: #000000; stroke-width: 0.8"/>
      </g>
     </g>
     <g id="text_10">
      <!-- 10 -->
      <g transform="translate(20.921875 14.148438) scale(0.1 -0.1)">
       <defs>
        <path id="CMUBright-Roman-31" d="M 672 3559 
L 672 3884 
Q 1428 3884 1863 4300 
L 1966 4300 
L 1966 319 
L 2803 319 
L 2803 0 
L 709 0 
L 709 319 
L 1550 319 
L 1550 3744 
Q 1178 3559 672 3559 
z
" transform="scale(0.015625)"/>
       </defs>
       <use xlink:href="#CMUBright-Roman-31"/>
       <use xlink:href="#CMUBright-Roman-30" x="52.490234"/>
      </g>
     </g>
    </g>
    <g id="text_11">
     <!-- Daily energy (MWh) -->
     <g transform="translate(14.7 137.638906) rotate(-90) scale(0.1 -0.1)">
      <defs>
       <path id="CMUBright-Roman-44" d="M 628 0 
L 628 4447 
L 2253 4447 
Q 2778 4447 3200 4239 
Q 3622 4031 3875 3695 
Q 4128 3359 4262 2971 
Q 4397 2584 4397 2188 
Q 4397 1309 3853 703 
Q 3309 97 2559 13 
Q 2450 0 2228 0 
L 628 0 
z
M 1069 341 
L 2144 341 
Q 2559 341 2886 461 
Q 3213 581 3411 770 
Q 3609 959 3734 1212 
Q 3859 1466 3907 1703 
Q 3956 1941 3956 2188 
Q 3956 2444 3907 2687 
Q 3859 2931 3734 3193 
Q 3609 3456 3411 3651 
Q 3213 3847 2886 3975 
Q 2559 4103 2144 4103 
L 1069 4103 
L 1069 341 
z
" transform="scale(0.015625)"/>
       <path id="CMUBright-Roman-69" d="M 513 0 
L 513 3022 
L 916 3022 
L 916 0 
L 513 0 
z
M 513 4038 
L 513 4441 
L 916 4441 
L 916 4038 
L 513 4038 
z
" transform="scale(0.015625)"/>
       <path id="CMUBright-Roman-6c" d="M 513 0 
L 513 4447 
L 916 4447 
L 916 0 
L 513 0 
z
" transform="scale(0.015625)"/>
       <path id="CMUBright-Roman-79" d="M 91 3022 
L 506 3022 
L 1172 1369 
Q 1447 641 1497 416 
Q 1541 722 2431 3022 
L 2834 3022 
L 1575 -250 
Q 1503 -434 1442 -553 
Q 1381 -672 1276 -819 
Q 1172 -966 1022 -1042 
Q 872 -1119 684 -1119 
Q 453 -1119 184 -1075 
L 153 -716 
Q 447 -794 684 -794 
Q 788 -794 873 -748 
Q 959 -703 1007 -665 
Q 1056 -628 1120 -500 
Q 1184 -372 1200 -326 
Q 1216 -281 1288 -103 
Q 1313 -31 1313 6 
Q 1313 38 1275 128 
L 91 3022 
z
" transform="scale(0.015625)"/>
       <path id="CMUBright-Roman-20" transform="scale(0.015625)"/>
       <path id="CMUBright-Roman-65" d="M 269 1538 
Q 269 2166 647 2631 
Q 1025 3097 1588 3097 
Q 1784 3097 1967 3036 
Q 2150 2975 2342 2828 
Q 2534 2681 2653 2364 
Q 2772 2047 2772 1600 
L 653 1600 
L 653 1550 
Q 653 969 967 619 
Q 1281 269 1691 269 
Q 2234 269 2725 709 
L 2759 359 
Q 2266 -50 1691 -50 
Q 1103 -50 686 408 
Q 269 866 269 1538 
z
M 684 1856 
L 2425 1856 
Q 2381 2344 2134 2561 
Q 1888 2778 1588 2778 
Q 1263 2778 1009 2515 
Q 756 2253 684 1856 
z
" transform="scale(0.015625)"/>
       <path id="CMUBright-Roman-6e" d="M 513 0 
L 513 3022 
L 909 3022 
L 909 2400 
Q 1031 2681 1273 2876 
Q 1516 3072 1869 3072 
Q 2125 3072 2308 2992 
Q 2491 2913 2580 2809 
Q 2669 2706 2720 2540 
Q 2772 2375 2778 2272 
Q 2784 2169 2784 2016 
L 2784 0 
L 2375 0 
L 2375 1991 
Q 2375 2106 2372 2176 
Q 2369 2247 2330 2369 
Q 2291 2491 2220 2564 
Q 2150 2638 2006 2695 
Q 1863 2753 1656 2753 
Q 1369 2753 1148 2518 
Q 928 2284 928 1678 
L 928 0 
L 513 0 
z
" transform="scale(0.015625)"/>
       <path id="CMUBright-Roman-72" d="M 513 0 
L 513 3022 
L 897 3022 
L 897 2534 
L 903 2234 
Q 953 2363 1042 2491 
Q 1131 2619 1273 2756 
Q 1416 2894 1633 2980 
Q 1850 3066 2113 3072 
L 2113 2713 
Q 1906 2706 1707 2642 
Q 1509 2578 1325 2443 
Q 1141 2309 1028 2070 
Q 916 1831 916 1509 
L 916 0 
L 513 0 
z
" transform="scale(0.015625)"/>
       <path id="CMUBright-Roman-67" d="M 294 1516 
Q 294 2175 675 2623 
Q 1056 3072 1556 3072 
Q 2075 3072 2381 2516 
L 2381 3072 
L 2784 3072 
L 2784 56 
Q 2784 -500 2461 -839 
Q 2138 -1178 1644 -1178 
Q 1056 -1178 459 -891 
L 459 -544 
Q 650 -641 770 -695 
Q 891 -750 1133 -803 
Q 1375 -856 1631 -856 
Q 1931 -856 2153 -626 
Q 2375 -397 2375 78 
L 2375 575 
L 2369 800 
Q 2266 538 2052 323 
Q 1838 109 1484 109 
Q 1003 109 648 515 
Q 294 922 294 1516 
z
M 709 1516 
Q 709 1047 1001 737 
Q 1294 428 1663 428 
Q 1859 428 2007 537 
Q 2156 647 2229 830 
Q 2303 1013 2339 1200 
Q 2375 1388 2375 1600 
L 2381 1600 
L 2381 2022 
Q 2381 2253 2214 2503 
Q 2047 2753 1741 2753 
Q 1331 2753 1020 2393 
Q 709 2034 709 1516 
z
" transform="scale(0.015625)"/>
       <path id="CMUBright-Roman-28" d="M 581 1691 
Q 581 3731 1913 4800 
L 2234 4800 
Q 1928 4513 1772 4313 
Q 991 3294 991 1703 
Q 991 -288 2203 -1394 
Q 2228 -1413 2234 -1422 
L 1913 -1422 
Q 1241 -878 911 -70 
Q 581 738 581 1691 
z
" transform="scale(0.015625)"/>
       <path id="CMUBright-Roman-4d" d="M 647 0 
L 647 4447 
L 1234 4447 
L 2528 1275 
L 2822 519 
L 2913 775 
L 4397 4447 
L 4991 4447 
L 4991 0 
L 4588 0 
L 4588 4031 
L 4091 2753 
L 3009 109 
L 2625 109 
L 1281 3419 
L 1050 4031 
L 1050 0 
L 647 0 
z
" transform="scale(0.015625)"/>
       <path id="CMUBright-Roman-57" d="M 91 4447 
L 525 4447 
L 1338 1734 
Q 1669 594 1703 416 
L 1766 691 
L 2113 1894 
L 2875 4447 
L 3322 4447 
L 4025 2131 
Q 4478 569 4513 416 
Q 4531 538 4916 1844 
L 5697 4447 
L 6088 4447 
L 4728 -31 
L 4269 -31 
L 3291 3238 
L 3109 3872 
L 3078 4031 
L 3028 3788 
L 2700 2663 
L 1894 -31 
L 1447 -31 
L 91 4447 
z
" transform="scale(0.015625)"/>
       <path id="CMUBright-Roman-68" d="M 513 0 
L 513 4447 
L 916 4447 
L 916 2694 
L 922 2419 
Q 1025 2663 1258 2867 
Q 1491 3072 1869 3072 
Q 2125 3072 2308 2995 
Q 2491 2919 2580 2816 
Q 2669 2713 2720 2547 
Q 2772 2381 2778 2275 
Q 2784 2169 2784 2016 
L 2784 0 
L 2375 0 
L 2375 1991 
Q 2375 2106 2372 2176 
Q 2369 2247 2330 2369 
Q 2291 2491 2220 2564 
Q 2150 2638 2006 2695 
Q 1863 2753 1656 2753 
Q 1369 2753 1148 2518 
Q 928 2284 928 1678 
L 928 0 
L 513 0 
z
" transform="scale(0.015625)"/>
       <path id="CMUBright-Roman-29" d="M 372 -1422 
Q 763 -1069 984 -716 
Q 1613 263 1613 1703 
Q 1613 3694 409 4769 
Q 378 4794 372 4800 
L 691 4800 
Q 1363 4263 1692 3459 
Q 2022 2656 2022 1703 
Q 2022 813 1715 -15 
Q 1409 -844 691 -1422 
L 372 -1422 
z
" transform="scale(0.015625)"/>
      </defs>
      <use xlink:href="#CMUBright-Roman-44"/>
      <use xlink:href="#CMUBright-Roman-61" x="74.560547"/>
      <use xlink:href="#CMUBright-Roman-69" x="123.730469"/>
      <use xlink:href="#CMUBright-Roman-6c" x="146.191406"/>
      <use xlink:href="#CMUBright-Roman-79" x="168.652344"/>
      <use xlink:href="#CMUBright-Roman-20" x="214.404297"/>
      <use xlink:href="#CMUBright-Roman-65" x="247.65625"/>
      <use xlink:href="#CMUBright-Roman-6e" x="294.335938"/>
      <use xlink:href="#CMUBright-Roman-65" x="345.996094"/>
      <use xlink:href="#CMUBright-Roman-72" x="392.675781"/>
      <use xlink:href="#CMUBright-Roman-67" x="427.246094"/>
      <use xlink:href="#CMUBright-Roman-79" x="478.90625"/>
      <use xlink:href="#CMUBright-Roman-20" x="524.658203"/>
      <use xlink:href="#CMUBright-Roman-28" x="557.910156"/>
      <use xlink:href="#CMUBright-Roman-4d" x="598.681641"/>
      <use xlink:href="#CMUBright-Roman-57" x="686.962891"/>
      <use xlink:href="#CMUBright-Roman-68" x="783.642578"/>
      <use xlink:href="#CMUBright-Roman-29" x="835.302734"/>
     </g>
    </g>
   </g>
   <g id="patch_3">
    <path d="M 49.9275 148.596247 
L 68.76 148.596247 
L 68.76 87.107932 
L 49.9275 87.107932 
L 49.9275 148.596247 
z
" clip-path="url(#p244f0a4cdc)" style="fill: #ffd45b; stroke: #000000; stroke-linejoin: miter"/>
   </g>
   <g id="line2d_11">
    <path d="M 59.34375 148.596247 
L 59.34375 158.72263 
" clip-path="url(#p244f0a4cdc)" style="fill: none; stroke: #000000; stroke-linecap: square"/>
   </g>
   <g id="line2d_12">
    <path d="M 59.34375 87.107932 
L 59.34375 76.376254 
" clip-path="url(#p244f0a4cdc)" style="fill: none; stroke: #000000; stroke-linecap: square"/>
   </g>
   <g id="line2d_13">
    <path d="M 54.635625 158.72263 
L 64.051875 158.72263 
" clip-path="url(#p244f0a4cdc)" style="fill: none; stroke: #000000; stroke-linecap: square"/>
   </g>
   <g id="line2d_14">
    <path d="M 54.635625 76.376254 
L 64.051875 76.376254 
" clip-path="url(#p244f0a4cdc)" style="fill: none; stroke: #000000; stroke-linecap: square"/>
   </g>
   <g id="line2d_15"/>
   <g id="patch_4">
    <path d="M 91.7775 153.314761 
L 110.61 153.314761 
L 110.61 96.434815 
L 91.7775 96.434815 
L 91.7775 153.314761 
z
" clip-path="url(#p244f0a4cdc)" style="fill: #db9671; stroke: #000000; stroke-linejoin: miter"/>
   </g>
   <g id="line2d_16">
    <path d="M 101.19375 153.314761 
L 101.19375 173.936819 
" clip-path="url(#p244f0a4cdc)" style="fill: none; stroke: #000000; stroke-linecap: square"/>
   </g>
   <g id="line2d_17">
    <path d="M 101.19375 96.434815 
L 101.19375 51.168885 
" clip-path="url(#p244f0a4cdc)" style="fill: none; stroke: #000000; stroke-linecap: square"/>
   </g>
   <g id="line2d_18">
    <path d="M 96.485625 173.936819 
L 105.901875 173.936819 
" clip-path="url(#p244f0a4cdc)" style="fill: none; stroke: #000000; stroke-linecap: square"/>
   </g>
   <g id="line2d_19">
    <path d="M 96.485625 51.168885 
L 105.901875 51.168885 
" clip-path="url(#p244f0a4cdc)" style="fill: none; stroke: #000000; stroke-linecap: square"/>
   </g>
   <g id="line2d_20"/>
   <g id="patch_5">
    <path d="M 133.6275 149.638659 
L 152.46 149.638659 
L 152.46 146.648081 
L 133.6275 146.648081 
L 133.6275 149.638659 
z
" clip-path="url(#p244f0a4cdc)" style="fill: #8d5eaa; stroke: #000000; stroke-linejoin: miter"/>
   </g>
   <g id="line2d_21">
    <path d="M 143.04375 149.638659 
L 143.04375 152.315246 
" clip-path="url(#p244f0a4cdc)" style="fill: none; stroke: #000000; stroke-linecap: square"/>
   </g>
   <g id="line2d_22">
    <path d="M 143.04375 146.648081 
L 143.04375 140.758824 
" clip-path="url(#p244f0a4cdc)" style="fill: none; stroke: #000000; stroke-linecap: square"/>
   </g>
   <g id="line2d_23">
    <path d="M 138.335625 152.315246 
L 147.751875 152.315246 
" clip-path="url(#p244f0a4cdc)" style="fill: none; stroke: #000000; stroke-linecap: square"/>
   </g>
   <g id="line2d_24">
    <path d="M 138.335625 140.758824 
L 147.751875 140.758824 
" clip-path="url(#p244f0a4cdc)" style="fill: none; stroke: #000000; stroke-linecap: square"/>
   </g>
   <g id="line2d_25"/>
   <g id="patch_6">
    <path d="M 175.4775 152.40575 
L 194.31 152.40575 
L 194.31 150.698341 
L 175.4775 150.698341 
L 175.4775 152.40575 
z
" clip-path="url(#p244f0a4cdc)" style="fill: #0033b0; stroke: #000000; stroke-linejoin: miter"/>
   </g>
   <g id="line2d_26">
    <path d="M 184.89375 152.40575 
L 184.89375 153.513839 
" clip-path="url(#p244f0a4cdc)" style="fill: none; stroke: #000000; stroke-linecap: square"/>
   </g>
   <g id="line2d_27">
    <path d="M 184.89375 150.698341 
L 184.89375 150.236929 
" clip-path="url(#p244f0a4cdc)" style="fill: none; stroke: #000000; stroke-linecap: square"/>
   </g>
   <g id="line2d_28">
    <path d="M 180.185625 153.513839 
L 189.601875 153.513839 
" clip-path="url(#p244f0a4cdc)" style="fill: none; stroke: #000000; stroke-linecap: square"/>
   </g>
   <g id="line2d_29">
    <path d="M 180.185625 150.236929 
L 189.601875 150.236929 
" clip-path="url(#p244f0a4cdc)" style="fill: none; stroke: #000000; stroke-linecap: square"/>
   </g>
   <g id="line2d_30"/>
   <g id="line2d_31">
    <path d="M 49.9275 104.498937 
L 68.76 104.498937 
" clip-path="url(#p244f0a4cdc)" style="fill: none; stroke: #000000"/>
   </g>
   <g id="line2d_32">
    <path d="M 91.7775 117.487782 
L 110.61 117.487782 
" clip-path="url(#p244f0a4cdc)" style="fill: none; stroke: #000000"/>
   </g>
   <g id="line2d_33">
    <path d="M 133.6275 147.907877 
L 152.46 147.907877 
" clip-path="url(#p244f0a4cdc)" style="fill: none; stroke: #000000"/>
   </g>
   <g id="line2d_34">
    <path d="M 175.4775 150.955479 
L 194.31 150.955479 
" clip-path="url(#p244f0a4cdc)" style="fill: none; stroke: #000000"/>
   </g>
   <g id="patch_7">
    <path d="M 38.41875 176.994219 
L 38.41875 10.674219 
" style="fill: none; stroke: #000000; stroke-width: 0.8; stroke-linejoin: miter; stroke-linecap: square"/>
   </g>
   <g id="patch_8">
    <path d="M 205.81875 176.994219 
L 205.81875 10.674219 
" style="fill: none; stroke: #000000; stroke-width: 0.8; stroke-linejoin: miter; stroke-linecap: square"/>
   </g>
   <g id="patch_9">
    <path d="M 38.41875 176.994219 
L 205.81875 176.994219 
" style="fill: none; stroke: #000000; stroke-width: 0.8; stroke-linejoin: miter; stroke-linecap: square"/>
   </g>
   <g id="patch_10">
    <path d="M 38.41875 10.674219 
L 205.81875 10.674219 
" style="fill: none; stroke: #000000; stroke-width: 0.8; stroke-linejoin: miter; stroke-linecap: square"/>
   </g>
  </g>
 </g>
 <defs>
  <clipPath id="p244f0a4cdc">
   <rect x="38.41875" y="10.674219" width="167.4" height="166.32"/>
  </clipPath>
 </defs>
</svg>
