<?xml version="1.0" encoding="utf-8" standalone="no"?>
<!DOCTYPE svg PUBLIC "-//W3C//DTD SVG 1.1//EN"
  "http://www.w3.org/Graphics/SVG/1.1/DTD/svg11.dtd">
<svg xmlns:xlink="http://www.w3.org/1999/xlink" width="251.701562pt" height="245.698438pt" viewBox="0 0 251.701562 245.698438" xmlns="http://www.w3.org/2000/svg" version="1.1">
 <metadata>
  <rdf:RDF xmlns:dc="http://purl.org/dc/elements/1.1/" xmlns:cc="http://creativecommons.org/ns#" xmlns:rdf="http://www.w3.org/1999/02/22-rdf-syntax-ns#">
   <cc:Work>
    <dc:type rdf:resource="http://purl.org/dc/dcmitype/StillImage"/>
    <dc:date>2025-03-28T16:58:31.935825</dc:date>
    <dc:format>image/svg+xml</dc:format>
    <dc:creator>
     <cc:Agent>
      <dc:title>Matplotlib v3.9.0, https://matplotlib.org/</dc:title>
     </cc:Agent>
    </dc:creator>
   </cc:Work>
  </rdf:RDF>
 </metadata>
 <defs>
  <style type="text/css">*{stroke-linejoin: round; stroke-linecap: butt}</style>
 </defs>
 <g id="figure_1">
  <g id="patch_1">
   <path d="M -0 245.698438 
L 251.701562 245.698438 
L 251.701562 0 
L -0 0 
z
" style="fill: #ffffff"/>
  </g>
  <g id="axes_1">
   <g id="patch_2">
    <path d="M 42.150781 210.1 
L 209.550781 210.1 
L 209.550781 43.78 
L 42.150781 43.78 
z
" style="fill: #ffffff"/>
   </g>
   <g id="matplotlib.axis_1">
    <g id="xtick_1">
     <g id="line2d_1">
      <defs>
       <path id="m91186815eb" d="M 0 0 
L 0 3.5 
" style="stroke: #000000; stroke-width: 0.8"/>
      </defs>
      <g>
       <use xlink:href="#m91186815eb" x="42.150781" y="210.1" style="stroke: #000000; stroke-width: 0.8"/>
      </g>
     </g>
     <g id="text_1">
      <!-- Jan -->
      <g transform="translate(34.694531 224.048438) scale(0.1 -0.1)">
       <defs>
        <path id="CMUBright-Roman-4a" d="M 275 159 
L 347 563 
Q 819 225 1244 225 
Q 1250 225 1253 225 
Q 1516 225 1705 295 
Q 1894 366 1981 452 
Q 2069 538 2116 672 
Q 2163 806 2166 864 
Q 2169 922 2169 1006 
L 2169 4447 
L 2613 4447 
L 2613 991 
Q 2613 734 2542 540 
Q 2472 347 2356 225 
Q 2241 103 2083 26 
Q 1925 -50 1765 -79 
Q 1606 -109 1428 -109 
Q 863 -109 275 159 
z
" transform="scale(0.015625)"/>
        <path id="CMUBright-Roman-61" d="M 353 738 
Q 353 897 436 1047 
Q 519 1197 708 1347 
Q 897 1497 1284 1590 
Q 1672 1684 2216 1697 
L 2216 1966 
Q 2216 2381 2041 2578 
Q 1856 2803 1569 2803 
Q 1331 2803 1107 2736 
Q 884 2669 811 2623 
Q 738 2578 556 2472 
L 525 2828 
Q 1044 3103 1575 3103 
Q 2056 3103 2326 2806 
Q 2597 2509 2625 2144 
L 2631 1925 
L 2631 0 
L 2228 0 
L 2228 441 
Q 1834 -50 1116 -50 
Q 1113 -50 1106 -50 
L 1063 -50 
Q 709 -50 531 206 
Q 353 463 353 738 
z
M 750 750 
Q 750 519 951 394 
Q 1153 269 1409 269 
Q 1525 269 1645 297 
Q 1766 325 1903 389 
Q 2041 453 2128 595 
Q 2216 738 2216 928 
L 2216 1497 
Q 1569 1491 1159 1286 
Q 750 1081 750 750 
z
" transform="scale(0.015625)"/>
        <path id="CMUBright-Roman-6e" d="M 513 0 
L 513 3022 
L 909 3022 
L 909 2400 
Q 1031 2681 1273 2876 
Q 1516 3072 1869 3072 
Q 2125 3072 2308 2992 
Q 2491 2913 2580 2809 
Q 2669 2706 2720 2540 
Q 2772 2375 2778 2272 
Q 2784 2169 2784 2016 
L 2784 0 
L 2375 0 
L 2375 1991 
Q 2375 2106 2372 2176 
Q 2369 2247 2330 2369 
Q 2291 2491 2220 2564 
Q 2150 2638 2006 2695 
Q 1863 2753 1656 2753 
Q 1369 2753 1148 2518 
Q 928 2284 928 1678 
L 928 0 
L 513 0 
z
" transform="scale(0.015625)"/>
       </defs>
       <use xlink:href="#CMUBright-Roman-4a"/>
       <use xlink:href="#CMUBright-Roman-61" x="48.291016"/>
       <use xlink:href="#CMUBright-Roman-6e" x="97.460938"/>
      </g>
     </g>
    </g>
    <g id="xtick_2">
     <g id="line2d_2">
      <g>
       <use xlink:href="#m91186815eb" x="72.587145" y="210.1" style="stroke: #000000; stroke-width: 0.8"/>
      </g>
     </g>
     <g id="text_2">
      <!-- Mar -->
      <g transform="translate(63.985582 224.048438) scale(0.1 -0.1)">
       <defs>
        <path id="CMUBright-Roman-4d" d="M 647 0 
L 647 4447 
L 1234 4447 
L 2528 1275 
L 2822 519 
L 2913 775 
L 4397 4447 
L 4991 4447 
L 4991 0 
L 4588 0 
L 4588 4031 
L 4091 2753 
L 3009 109 
L 2625 109 
L 1281 3419 
L 1050 4031 
L 1050 0 
L 647 0 
z
" transform="scale(0.015625)"/>
        <path id="CMUBright-Roman-72" d="M 513 0 
L 513 3022 
L 897 3022 
L 897 2534 
L 903 2234 
Q 953 2363 1042 2491 
Q 1131 2619 1273 2756 
Q 1416 2894 1633 2980 
Q 1850 3066 2113 3072 
L 2113 2713 
Q 1906 2706 1707 2642 
Q 1509 2578 1325 2443 
Q 1141 2309 1028 2070 
Q 916 1831 916 1509 
L 916 0 
L 513 0 
z
" transform="scale(0.015625)"/>
       </defs>
       <use xlink:href="#CMUBright-Roman-4d"/>
       <use xlink:href="#CMUBright-Roman-61" x="88.28125"/>
       <use xlink:href="#CMUBright-Roman-72" x="137.451172"/>
      </g>
     </g>
    </g>
    <g id="xtick_3">
     <g id="line2d_3">
      <g>
       <use xlink:href="#m91186815eb" x="103.023509" y="210.1" style="stroke: #000000; stroke-width: 0.8"/>
      </g>
     </g>
     <g id="text_3">
      <!-- May -->
      <g transform="translate(93.863352 224.048438) scale(0.1 -0.1)">
       <defs>
        <path id="CMUBright-Roman-79" d="M 91 3022 
L 506 3022 
L 1172 1369 
Q 1447 641 1497 416 
Q 1541 722 2431 3022 
L 2834 3022 
L 1575 -250 
Q 1503 -434 1442 -553 
Q 1381 -672 1276 -819 
Q 1172 -966 1022 -1042 
Q 872 -1119 684 -1119 
Q 453 -1119 184 -1075 
L 153 -716 
Q 447 -794 684 -794 
Q 788 -794 873 -748 
Q 959 -703 1007 -665 
Q 1056 -628 1120 -500 
Q 1184 -372 1200 -326 
Q 1216 -281 1288 -103 
Q 1313 -31 1313 6 
Q 1313 38 1275 128 
L 91 3022 
z
" transform="scale(0.015625)"/>
       </defs>
       <use xlink:href="#CMUBright-Roman-4d"/>
       <use xlink:href="#CMUBright-Roman-61" x="88.28125"/>
       <use xlink:href="#CMUBright-Roman-79" x="137.451172"/>
      </g>
     </g>
    </g>
    <g id="xtick_4">
     <g id="line2d_4">
      <g>
       <use xlink:href="#m91186815eb" x="133.459872" y="210.1" style="stroke: #000000; stroke-width: 0.8"/>
      </g>
     </g>
     <g id="text_4">
      <!-- Jul -->
      <g transform="translate(127.338778 224.048438) scale(0.1 -0.1)">
       <defs>
        <path id="CMUBright-Roman-75" d="M 513 850 
L 513 3022 
L 928 3022 
L 928 781 
Q 928 488 1037 369 
Q 1147 250 1516 250 
Q 1875 250 2125 476 
Q 2375 703 2375 1119 
L 2375 3022 
L 2784 3022 
L 2784 0 
L 2381 0 
L 2381 550 
Q 2216 269 1911 109 
Q 1606 -50 1253 -50 
Q 1003 -50 843 29 
Q 684 109 617 262 
Q 550 416 531 541 
Q 513 666 513 850 
z
" transform="scale(0.015625)"/>
        <path id="CMUBright-Roman-6c" d="M 513 0 
L 513 4447 
L 916 4447 
L 916 0 
L 513 0 
z
" transform="scale(0.015625)"/>
       </defs>
       <use xlink:href="#CMUBright-Roman-4a"/>
       <use xlink:href="#CMUBright-Roman-75" x="48.291016"/>
       <use xlink:href="#CMUBright-Roman-6c" x="99.951172"/>
      </g>
     </g>
    </g>
    <g id="xtick_5">
     <g id="line2d_5">
      <g>
       <use xlink:href="#m91186815eb" x="163.896236" y="210.1" style="stroke: #000000; stroke-width: 0.8"/>
      </g>
     </g>
     <g id="text_5">
      <!-- Sep -->
      <g transform="translate(156.066548 224.209375) scale(0.1 -0.1)">
       <defs>
        <path id="CMUBright-Roman-53" d="M 294 341 
L 372 781 
Q 1081 256 1844 256 
Q 2344 256 2644 531 
Q 2944 806 2944 1153 
Q 2944 1403 2781 1623 
Q 2619 1844 2322 1959 
Q 2175 2016 1769 2095 
Q 1363 2175 1059 2315 
Q 756 2456 556 2747 
Q 366 3016 366 3341 
Q 366 3809 781 4179 
Q 1197 4550 1881 4550 
Q 2516 4550 3109 4244 
L 3034 3803 
Q 2850 3931 2747 3990 
Q 2644 4050 2400 4123 
Q 2156 4197 1881 4197 
Q 1388 4197 1081 3958 
Q 775 3719 775 3391 
Q 775 3166 931 2972 
Q 1088 2778 1375 2669 
Q 1491 2631 1909 2534 
Q 2328 2438 2438 2394 
Q 2897 2222 3125 1886 
Q 3353 1550 3353 1197 
Q 3353 678 2925 284 
Q 2497 -109 1838 -109 
Q 1031 -106 294 341 
z
" transform="scale(0.015625)"/>
        <path id="CMUBright-Roman-65" d="M 269 1538 
Q 269 2166 647 2631 
Q 1025 3097 1588 3097 
Q 1784 3097 1967 3036 
Q 2150 2975 2342 2828 
Q 2534 2681 2653 2364 
Q 2772 2047 2772 1600 
L 653 1600 
L 653 1550 
Q 653 969 967 619 
Q 1281 269 1691 269 
Q 2234 269 2725 709 
L 2759 359 
Q 2266 -50 1691 -50 
Q 1103 -50 686 408 
Q 269 866 269 1538 
z
M 684 1856 
L 2425 1856 
Q 2381 2344 2134 2561 
Q 1888 2778 1588 2778 
Q 1263 2778 1009 2515 
Q 756 2253 684 1856 
z
" transform="scale(0.015625)"/>
        <path id="CMUBright-Roman-70" d="M 513 -1069 
L 513 3022 
L 916 3022 
L 916 2584 
Q 1319 3072 1888 3072 
Q 2356 3072 2679 2620 
Q 3003 2169 3003 1522 
Q 3003 825 2622 387 
Q 2241 -50 1753 -50 
Q 1528 -50 1326 61 
Q 1125 172 1075 236 
Q 1025 300 928 422 
L 928 -1069 
L 513 -1069 
z
M 928 831 
Q 928 634 1111 451 
Q 1294 269 1556 269 
Q 1972 269 2281 630 
Q 2591 991 2591 1516 
Q 2591 2022 2303 2384 
Q 2016 2747 1619 2747 
Q 1288 2747 1056 2491 
Q 959 2369 943 2333 
Q 928 2297 928 2188 
L 928 831 
z
" transform="scale(0.015625)"/>
       </defs>
       <use xlink:href="#CMUBright-Roman-53"/>
       <use xlink:href="#CMUBright-Roman-65" x="58.251953"/>
       <use xlink:href="#CMUBright-Roman-70" x="104.931641"/>
      </g>
     </g>
    </g>
    <g id="xtick_6">
     <g id="line2d_6">
      <g>
       <use xlink:href="#m91186815eb" x="194.332599" y="210.1" style="stroke: #000000; stroke-width: 0.8"/>
      </g>
     </g>
     <g id="text_6">
      <!-- Nov -->
      <g transform="translate(185.883381 224.048438) scale(0.1 -0.1)">
       <defs>
        <path id="CMUBright-Roman-4e" d="M 641 0 
L 641 4447 
L 1269 4447 
L 3488 372 
L 3488 4447 
L 3891 4447 
L 3891 0 
L 3263 0 
L 1044 4078 
L 1044 0 
L 641 0 
z
" transform="scale(0.015625)"/>
        <path id="CMUBright-Roman-6f" d="M 256 1509 
Q 256 2181 675 2639 
Q 1094 3097 1678 3097 
Q 2272 3097 2681 2626 
Q 3091 2156 3091 1509 
Q 3091 838 2669 394 
Q 2247 -50 1678 -50 
Q 1091 -50 673 406 
Q 256 863 256 1509 
z
M 666 1588 
Q 666 1191 772 916 
Q 878 641 1047 512 
Q 1216 384 1369 332 
Q 1522 281 1678 281 
Q 1844 281 2006 342 
Q 2169 403 2330 537 
Q 2491 672 2586 937 
Q 2681 1203 2681 1569 
Q 2681 1916 2586 2164 
Q 2491 2413 2330 2541 
Q 2169 2669 2006 2723 
Q 1844 2778 1676 2778 
Q 1509 2778 1346 2723 
Q 1184 2669 1023 2544 
Q 863 2419 764 2173 
Q 666 1928 666 1588 
z
" transform="scale(0.015625)"/>
        <path id="CMUBright-Roman-76" d="M 91 3022 
L 500 3022 
L 1466 416 
L 2431 3022 
L 2834 3022 
L 1697 -19 
L 1222 -19 
L 91 3022 
z
" transform="scale(0.015625)"/>
       </defs>
       <use xlink:href="#CMUBright-Roman-4e"/>
       <use xlink:href="#CMUBright-Roman-6f" x="70.751953"/>
       <use xlink:href="#CMUBright-Roman-76" x="123.242188"/>
      </g>
     </g>
    </g>
    <g id="text_7">
     <!-- Month -->
     <g transform="translate(111.752344 236.828125) scale(0.1 -0.1)">
      <defs>
       <path id="CMUBright-Roman-74" d="M 122 2700 
L 122 3022 
L 738 3022 
L 738 3884 
L 1125 3884 
L 1125 3022 
L 2119 3022 
L 2119 2700 
L 1125 2700 
L 1125 884 
Q 1125 281 1491 281 
Q 1569 281 1639 290 
Q 1709 300 1770 323 
Q 1831 347 1878 365 
Q 1925 384 1973 415 
Q 2022 447 2048 464 
Q 2075 481 2109 512 
Q 2144 544 2150 544 
L 2234 231 
Q 1781 -50 1259 -50 
Q 728 -50 728 838 
L 728 2700 
L 122 2700 
z
" transform="scale(0.015625)"/>
       <path id="CMUBright-Roman-68" d="M 513 0 
L 513 4447 
L 916 4447 
L 916 2694 
L 922 2419 
Q 1025 2663 1258 2867 
Q 1491 3072 1869 3072 
Q 2125 3072 2308 2995 
Q 2491 2919 2580 2816 
Q 2669 2713 2720 2547 
Q 2772 2381 2778 2275 
Q 2784 2169 2784 2016 
L 2784 0 
L 2375 0 
L 2375 1991 
Q 2375 2106 2372 2176 
Q 2369 2247 2330 2369 
Q 2291 2491 2220 2564 
Q 2150 2638 2006 2695 
Q 1863 2753 1656 2753 
Q 1369 2753 1148 2518 
Q 928 2284 928 1678 
L 928 0 
L 513 0 
z
" transform="scale(0.015625)"/>
      </defs>
      <use xlink:href="#CMUBright-Roman-4d"/>
      <use xlink:href="#CMUBright-Roman-6f" x="88.28125"/>
      <use xlink:href="#CMUBright-Roman-6e" x="140.771484"/>
      <use xlink:href="#CMUBright-Roman-74" x="192.431641"/>
      <use xlink:href="#CMUBright-Roman-68" x="230.322266"/>
     </g>
    </g>
   </g>
   <g id="matplotlib.axis_2">
    <g id="ytick_1">
     <g id="line2d_7">
      <defs>
       <path id="ma366f92fca" d="M 0 0 
L -3.5 0 
" style="stroke: #000000; stroke-width: 0.8"/>
      </defs>
      <g>
       <use xlink:href="#ma366f92fca" x="42.150781" y="210.1" style="stroke: #000000; stroke-width: 0.8"/>
      </g>
     </g>
     <g id="text_8">
      <!-- 0 -->
      <g transform="translate(29.902344 213.574219) scale(0.1 -0.1)">
       <defs>
        <path id="CMUBright-Roman-30" d="M 331 1984 
L 331 2088 
Q 331 2294 339 2439 
Q 347 2584 372 2831 
Q 397 3078 461 3267 
Q 525 3456 620 3657 
Q 716 3859 880 4006 
Q 1044 4153 1259 4231 
Q 1444 4303 1678 4300 
Q 1856 4300 2025 4256 
Q 2194 4213 2380 4070 
Q 2566 3928 2703 3708 
Q 2841 3488 2931 3103 
Q 3022 2719 3022 2216 
Q 3022 1684 2983 1348 
Q 2944 1013 2803 684 
Q 2619 250 2308 70 
Q 1997 -109 1678 -109 
Q 1500 -109 1329 -64 
Q 1159 -19 973 122 
Q 788 263 650 483 
Q 513 703 422 1090 
Q 331 1478 331 1984 
z
M 744 2413 
Q 744 2375 747 2326 
Q 750 2278 750 2272 
L 750 2150 
Q 750 1778 759 1548 
Q 769 1319 839 1014 
Q 909 709 1038 538 
Q 1288 219 1678 219 
Q 2088 219 2328 556 
Q 2450 728 2517 1036 
Q 2584 1344 2595 1567 
Q 2606 1791 2606 2163 
L 2606 2272 
Q 2606 2278 2609 2323 
Q 2613 2369 2613 2406 
Q 2613 3303 2338 3659 
Q 2100 3978 1678 3981 
Q 1244 3981 1006 3641 
Q 744 3263 744 2413 
z
" transform="scale(0.015625)"/>
       </defs>
       <use xlink:href="#CMUBright-Roman-30"/>
      </g>
     </g>
    </g>
    <g id="ytick_2">
     <g id="line2d_8">
      <g>
       <use xlink:href="#ma366f92fca" x="42.150781" y="176.836" style="stroke: #000000; stroke-width: 0.8"/>
      </g>
     </g>
     <g id="text_9">
      <!-- 1 -->
      <g transform="translate(29.902344 180.310219) scale(0.1 -0.1)">
       <defs>
        <path id="CMUBright-Roman-31" d="M 672 3559 
L 672 3884 
Q 1428 3884 1863 4300 
L 1966 4300 
L 1966 319 
L 2803 319 
L 2803 0 
L 709 0 
L 709 319 
L 1550 319 
L 1550 3744 
Q 1178 3559 672 3559 
z
" transform="scale(0.015625)"/>
       </defs>
       <use xlink:href="#CMUBright-Roman-31"/>
      </g>
     </g>
    </g>
    <g id="ytick_3">
     <g id="line2d_9">
      <g>
       <use xlink:href="#ma366f92fca" x="42.150781" y="143.572" style="stroke: #000000; stroke-width: 0.8"/>
      </g>
     </g>
     <g id="text_10">
      <!-- 2 -->
      <g transform="translate(29.902344 147.046219) scale(0.1 -0.1)">
       <defs>
        <path id="CMUBright-Roman-32" d="M 275 3225 
Q 594 4300 1588 4300 
L 1594 4300 
Q 2216 4294 2619 3923 
Q 3022 3553 3022 2988 
Q 3022 2744 2937 2530 
Q 2853 2316 2668 2114 
Q 2484 1913 2384 1820 
Q 2284 1728 2059 1550 
Q 1753 1300 1640 1203 
Q 1528 1106 697 359 
L 3022 359 
L 3022 0 
L 331 0 
L 331 341 
L 1684 1563 
Q 2144 1966 2367 2278 
Q 2591 2591 2591 2981 
Q 2591 3416 2278 3689 
Q 1966 3963 1497 3963 
Q 1069 3963 855 3694 
Q 641 3425 513 2938 
L 275 3225 
z
" transform="scale(0.015625)"/>
       </defs>
       <use xlink:href="#CMUBright-Roman-32"/>
      </g>
     </g>
    </g>
    <g id="ytick_4">
     <g id="line2d_10">
      <g>
       <use xlink:href="#ma366f92fca" x="42.150781" y="110.308" style="stroke: #000000; stroke-width: 0.8"/>
      </g>
     </g>
     <g id="text_11">
      <!-- 3 -->
      <g transform="translate(29.902344 113.782219) scale(0.1 -0.1)">
       <defs>
        <path id="CMUBright-Roman-33" d="M 281 653 
Q 281 666 284 684 
Q 288 703 303 773 
Q 319 844 341 941 
Q 559 641 862 464 
Q 1166 288 1341 256 
Q 1516 225 1684 225 
Q 2113 225 2369 487 
Q 2625 750 2625 1166 
Q 2625 1575 2381 1825 
Q 2138 2075 1772 2100 
L 1556 2106 
L 1113 2106 
L 1113 2425 
Q 1706 2469 1863 2528 
Q 2100 2619 2281 2839 
Q 2463 3059 2463 3359 
Q 2463 3641 2255 3811 
Q 2047 3981 1703 3981 
Q 975 3981 569 3256 
L 372 3541 
Q 847 4303 1703 4300 
Q 2203 4300 2545 4025 
Q 2888 3750 2888 3359 
Q 2888 3059 2705 2761 
Q 2522 2463 2106 2272 
Q 2581 2144 2826 1833 
Q 3072 1522 3072 1159 
Q 3072 666 2684 278 
Q 2297 -109 1691 -109 
Q 1403 -109 1126 -9 
Q 850 91 675 222 
Q 500 353 390 475 
Q 281 597 281 653 
z
" transform="scale(0.015625)"/>
       </defs>
       <use xlink:href="#CMUBright-Roman-33"/>
      </g>
     </g>
    </g>
    <g id="ytick_5">
     <g id="line2d_11">
      <g>
       <use xlink:href="#ma366f92fca" x="42.150781" y="77.044" style="stroke: #000000; stroke-width: 0.8"/>
      </g>
     </g>
     <g id="text_12">
      <!-- 4 -->
      <g transform="translate(29.902344 80.518219) scale(0.1 -0.1)">
       <defs>
        <path id="CMUBright-Roman-34" d="M 184 1159 
L 184 1503 
L 1953 4250 
L 2438 4250 
L 2438 1497 
L 3169 1497 
L 3169 1159 
L 2438 1159 
L 2438 0 
L 2034 0 
L 2034 1159 
L 184 1159 
z
M 603 1497 
L 2053 1497 
L 2053 3884 
Q 1969 3666 1606 3084 
L 603 1497 
z
" transform="scale(0.015625)"/>
       </defs>
       <use xlink:href="#CMUBright-Roman-34"/>
      </g>
     </g>
    </g>
    <g id="ytick_6">
     <g id="line2d_12">
      <g>
       <use xlink:href="#ma366f92fca" x="42.150781" y="43.78" style="stroke: #000000; stroke-width: 0.8"/>
      </g>
     </g>
     <g id="text_13">
      <!-- 5 -->
      <g transform="translate(29.902344 47.254219) scale(0.1 -0.1)">
       <defs>
        <path id="CMUBright-Roman-35" d="M 300 519 
L 488 819 
Q 897 225 1581 225 
Q 1972 225 2269 473 
Q 2566 722 2566 1313 
Q 2566 1625 2489 1847 
Q 2413 2069 2284 2176 
Q 2156 2284 2031 2329 
Q 1906 2375 1772 2375 
Q 1209 2375 941 1900 
L 581 1900 
L 581 4191 
L 2797 4191 
L 2797 3853 
L 972 3853 
L 972 2381 
Q 1325 2700 1778 2700 
Q 2284 2700 2653 2290 
Q 3022 1881 3022 1306 
Q 3022 725 2601 308 
Q 2181 -109 1575 -109 
Q 813 -109 300 519 
z
" transform="scale(0.015625)"/>
       </defs>
       <use xlink:href="#CMUBright-Roman-35"/>
      </g>
     </g>
    </g>
    <g id="text_14">
     <!-- Energy (TWh) -->
     <g transform="translate(23.680469 158.361094) rotate(-90) scale(0.1 -0.1)">
      <defs>
       <path id="CMUBright-Roman-45" d="M 628 0 
L 628 4434 
L 3622 4434 
L 3622 4097 
L 1075 4097 
L 1075 2478 
L 3438 2478 
L 3438 2138 
L 1075 2138 
L 1075 359 
L 3719 359 
L 3719 0 
L 628 0 
z
" transform="scale(0.015625)"/>
       <path id="CMUBright-Roman-67" d="M 294 1516 
Q 294 2175 675 2623 
Q 1056 3072 1556 3072 
Q 2075 3072 2381 2516 
L 2381 3072 
L 2784 3072 
L 2784 56 
Q 2784 -500 2461 -839 
Q 2138 -1178 1644 -1178 
Q 1056 -1178 459 -891 
L 459 -544 
Q 650 -641 770 -695 
Q 891 -750 1133 -803 
Q 1375 -856 1631 -856 
Q 1931 -856 2153 -626 
Q 2375 -397 2375 78 
L 2375 575 
L 2369 800 
Q 2266 538 2052 323 
Q 1838 109 1484 109 
Q 1003 109 648 515 
Q 294 922 294 1516 
z
M 709 1516 
Q 709 1047 1001 737 
Q 1294 428 1663 428 
Q 1859 428 2007 537 
Q 2156 647 2229 830 
Q 2303 1013 2339 1200 
Q 2375 1388 2375 1600 
L 2381 1600 
L 2381 2022 
Q 2381 2253 2214 2503 
Q 2047 2753 1741 2753 
Q 1331 2753 1020 2393 
Q 709 2034 709 1516 
z
" transform="scale(0.015625)"/>
       <path id="CMUBright-Roman-20" transform="scale(0.015625)"/>
       <path id="CMUBright-Roman-28" d="M 581 1691 
Q 581 3731 1913 4800 
L 2234 4800 
Q 1928 4513 1772 4313 
Q 991 3294 991 1703 
Q 991 -288 2203 -1394 
Q 2228 -1413 2234 -1422 
L 1913 -1422 
Q 1241 -878 911 -70 
Q 581 738 581 1691 
z
" transform="scale(0.015625)"/>
       <path id="CMUBright-Roman-54" d="M 238 4091 
L 238 4428 
L 4391 4428 
L 4391 4091 
L 2541 4091 
L 2541 0 
L 2094 0 
L 2094 4091 
L 238 4091 
z
" transform="scale(0.015625)"/>
       <path id="CMUBright-Roman-57" d="M 91 4447 
L 525 4447 
L 1338 1734 
Q 1669 594 1703 416 
L 1766 691 
L 2113 1894 
L 2875 4447 
L 3322 4447 
L 4025 2131 
Q 4478 569 4513 416 
Q 4531 538 4916 1844 
L 5697 4447 
L 6088 4447 
L 4728 -31 
L 4269 -31 
L 3291 3238 
L 3109 3872 
L 3078 4031 
L 3028 3788 
L 2700 2663 
L 1894 -31 
L 1447 -31 
L 91 4447 
z
" transform="scale(0.015625)"/>
       <path id="CMUBright-Roman-29" d="M 372 -1422 
Q 763 -1069 984 -716 
Q 1613 263 1613 1703 
Q 1613 3694 409 4769 
Q 378 4794 372 4800 
L 691 4800 
Q 1363 4263 1692 3459 
Q 2022 2656 2022 1703 
Q 2022 813 1715 -15 
Q 1409 -844 691 -1422 
L 372 -1422 
z
" transform="scale(0.015625)"/>
      </defs>
      <use xlink:href="#CMUBright-Roman-45"/>
      <use xlink:href="#CMUBright-Roman-6e" x="62.5"/>
      <use xlink:href="#CMUBright-Roman-65" x="114.160156"/>
      <use xlink:href="#CMUBright-Roman-72" x="160.839844"/>
      <use xlink:href="#CMUBright-Roman-67" x="195.410156"/>
      <use xlink:href="#CMUBright-Roman-79" x="247.070312"/>
      <use xlink:href="#CMUBright-Roman-20" x="292.822266"/>
      <use xlink:href="#CMUBright-Roman-28" x="326.074219"/>
      <use xlink:href="#CMUBright-Roman-54" x="366.845703"/>
      <use xlink:href="#CMUBright-Roman-57" x="439.306641"/>
      <use xlink:href="#CMUBright-Roman-68" x="535.986328"/>
      <use xlink:href="#CMUBright-Roman-29" x="587.646484"/>
     </g>
    </g>
   </g>
   <g id="line2d_13">
    <path d="M 42.150781 187.88367 
L 49.759872 187.88367 
L 49.759872 176.598613 
L 64.978054 176.598613 
L 64.978054 154.576514 
L 80.196236 154.576514 
L 80.196236 144.483025 
L 95.414418 144.483025 
L 95.414418 138.832483 
L 110.632599 138.832483 
L 110.632599 135.265199 
L 125.850781 135.265199 
L 125.850781 133.231495 
L 141.068963 133.231495 
L 141.068963 142.127733 
L 156.287145 142.127733 
L 156.287145 154.308512 
L 171.505327 154.308512 
L 171.505327 170.556448 
L 186.723509 170.556448 
L 186.723509 185.972662 
L 201.94169 185.972662 
L 201.94169 191.200972 
L 209.550781 191.200972 
" clip-path="url(#pdbbefb5822)" style="fill: none; stroke: #ffd45b; stroke-width: 2; stroke-linecap: square"/>
   </g>
   <g id="line2d_14">
    <path d="M 42.150781 148.431229 
L 49.759872 148.431229 
L 49.759872 165.276907 
L 64.978054 165.276907 
L 64.978054 164.46556 
L 80.196236 164.46556 
L 80.196236 173.703141 
L 95.414418 173.703141 
L 95.414418 182.697929 
L 110.632599 182.697929 
L 110.632599 203.339402 
L 125.850781 203.339402 
L 125.850781 203.115446 
L 141.068963 203.115446 
L 141.068963 200.992919 
L 156.287145 200.992919 
L 156.287145 198.836981 
L 171.505327 198.836981 
L 171.505327 178.888738 
L 186.723509 178.888738 
L 186.723509 162.31174 
L 201.94169 162.31174 
L 201.94169 154.708948 
L 209.550781 154.708948 
" clip-path="url(#pdbbefb5822)" style="fill: none; stroke: #db9671; stroke-width: 2; stroke-linecap: square"/>
   </g>
   <g id="line2d_15">
    <path d="M 42.150781 174.895173 
L 49.759872 174.895173 
L 49.759872 177.993745 
L 64.978054 177.993745 
L 64.978054 174.287563 
L 80.196236 174.287563 
L 80.196236 178.450329 
L 95.414418 178.450329 
L 95.414418 177.719698 
L 110.632599 177.719698 
L 110.632599 178.524956 
L 125.850781 178.524956 
L 125.850781 177.932434 
L 141.068963 177.932434 
L 141.068963 177.396282 
L 156.287145 177.396282 
L 156.287145 178.541407 
L 171.505327 178.541407 
L 171.505327 177.853916 
L 186.723509 177.853916 
L 186.723509 175.515349 
L 201.94169 175.515349 
L 201.94169 173.916421 
L 209.550781 173.916421 
" clip-path="url(#pdbbefb5822)" style="fill: none; stroke: #8d5eaa; stroke-width: 2; stroke-linecap: square"/>
   </g>
   <g id="line2d_16">
    <path d="M 42.150781 69.518829 
L 49.759872 69.518829 
L 49.759872 86.723209 
L 64.978054 86.723209 
L 64.978054 72.151652 
L 80.196236 72.151652 
L 80.196236 83.289922 
L 95.414418 83.289922 
L 95.414418 74.100544 
L 110.632599 74.100544 
L 110.632599 76.31555 
L 125.850781 76.31555 
L 125.850781 79.238248 
L 141.068963 79.238248 
L 141.068963 73.369355 
L 156.287145 73.369355 
L 156.287145 77.052186 
L 171.505327 77.052186 
L 171.505327 74.91668 
L 186.723509 74.91668 
L 186.723509 73.569807 
L 201.94169 73.569807 
L 201.94169 77.470609 
L 209.550781 77.470609 
" clip-path="url(#pdbbefb5822)" style="fill: none; stroke: #0033b0; stroke-width: 2; stroke-linecap: square"/>
   </g>
   <g id="patch_3">
    <path d="M 42.150781 210.1 
L 42.150781 43.78 
" style="fill: none; stroke: #000000; stroke-width: 0.8; stroke-linejoin: miter; stroke-linecap: square"/>
   </g>
   <g id="patch_4">
    <path d="M 209.550781 210.1 
L 209.550781 43.78 
" style="fill: none; stroke: #000000; stroke-width: 0.8; stroke-linejoin: miter; stroke-linecap: square"/>
   </g>
   <g id="patch_5">
    <path d="M 42.150781 210.1 
L 209.550781 210.1 
" style="fill: none; stroke: #000000; stroke-width: 0.8; stroke-linejoin: miter; stroke-linecap: square"/>
   </g>
   <g id="patch_6">
    <path d="M 42.150781 43.78 
L 209.550781 43.78 
" style="fill: none; stroke: #000000; stroke-width: 0.8; stroke-linejoin: miter; stroke-linecap: square"/>
   </g>
   <g id="legend_1">
    <g id="line2d_17">
     <path d="M 11.2 14.809375 
L 16.2 14.809375 
L 16.2 14.809375 
L 26.2 14.809375 
L 26.2 14.809375 
L 31.2 14.809375 
" style="fill: none; stroke: #ffd45b; stroke-width: 2; stroke-linecap: square"/>
    </g>
    <g id="text_15">
     <!-- PV Generation -->
     <g transform="translate(39.2 18.309375) scale(0.1 -0.1)">
      <defs>
       <path id="CMUBright-Roman-50" d="M 628 0 
L 628 4447 
L 2150 4447 
Q 2738 4447 3156 4219 
Q 3475 4041 3654 3758 
Q 3834 3475 3834 3163 
Q 3834 2956 3740 2745 
Q 3647 2534 3462 2336 
Q 3278 2138 2937 2013 
Q 2597 1888 2163 1888 
L 1075 1888 
L 1075 0 
L 628 0 
z
M 1069 2222 
L 2081 2222 
Q 2478 2222 2759 2311 
Q 3041 2400 3172 2553 
Q 3303 2706 3358 2850 
Q 3413 2994 3413 3163 
Q 3413 3322 3358 3469 
Q 3303 3616 3168 3769 
Q 3034 3922 2756 4012 
Q 2478 4103 2081 4103 
L 1069 4103 
L 1069 2222 
z
" transform="scale(0.015625)"/>
       <path id="CMUBright-Roman-56" d="M 91 4447 
L 563 4447 
L 2094 647 
L 2175 416 
L 2731 1825 
L 3794 4447 
L 4219 4447 
L 2406 -31 
L 1906 -31 
L 91 4447 
z
" transform="scale(0.015625)"/>
       <path id="CMUBright-Roman-47" d="M 519 2222 
Q 519 2831 778 3357 
Q 1038 3884 1530 4217 
Q 2022 4550 2638 4550 
L 2650 4550 
Q 3309 4550 3969 4244 
L 3891 3803 
Q 3700 3931 3581 3997 
Q 3463 4063 3203 4138 
Q 2944 4213 2650 4213 
Q 1913 4213 1439 3623 
Q 966 3034 966 2222 
Q 966 1391 1448 811 
Q 1931 231 2625 231 
Q 3041 231 3609 403 
L 3609 1759 
L 2606 1759 
L 2606 2100 
L 4025 2100 
L 4025 206 
Q 3328 -106 2631 -109 
Q 1741 -109 1130 573 
Q 519 1256 519 2222 
z
" transform="scale(0.015625)"/>
       <path id="CMUBright-Roman-69" d="M 513 0 
L 513 3022 
L 916 3022 
L 916 0 
L 513 0 
z
M 513 4038 
L 513 4441 
L 916 4441 
L 916 4038 
L 513 4038 
z
" transform="scale(0.015625)"/>
      </defs>
      <use xlink:href="#CMUBright-Roman-50"/>
      <use xlink:href="#CMUBright-Roman-56" x="65.771484"/>
      <use xlink:href="#CMUBright-Roman-20" x="133.251953"/>
      <use xlink:href="#CMUBright-Roman-47" x="166.503906"/>
      <use xlink:href="#CMUBright-Roman-65" x="236.474609"/>
      <use xlink:href="#CMUBright-Roman-6e" x="283.154297"/>
      <use xlink:href="#CMUBright-Roman-65" x="334.814453"/>
      <use xlink:href="#CMUBright-Roman-72" x="381.494141"/>
      <use xlink:href="#CMUBright-Roman-61" x="416.064453"/>
      <use xlink:href="#CMUBright-Roman-74" x="465.234375"/>
      <use xlink:href="#CMUBright-Roman-69" x="503.125"/>
      <use xlink:href="#CMUBright-Roman-6f" x="525.585938"/>
      <use xlink:href="#CMUBright-Roman-6e" x="578.076172"/>
     </g>
    </g>
    <g id="line2d_18">
     <path d="M 11.2 28.589063 
L 16.2 28.589063 
L 16.2 28.589063 
L 26.2 28.589063 
L 26.2 28.589063 
L 31.2 28.589063 
" style="fill: none; stroke: #db9671; stroke-width: 2; stroke-linecap: square"/>
    </g>
    <g id="text_16">
     <!-- HP Consumption -->
     <g transform="translate(39.2 32.089063) scale(0.1 -0.1)">
      <defs>
       <path id="CMUBright-Roman-48" d="M 628 0 
L 628 4447 
L 1075 4447 
L 1075 2484 
L 3450 2484 
L 3450 4447 
L 3897 4447 
L 3897 0 
L 3450 0 
L 3450 2144 
L 1075 2144 
L 1075 0 
L 628 0 
z
" transform="scale(0.015625)"/>
       <path id="CMUBright-Roman-43" d="M 778 1084 
Q 519 1613 519 2220 
Q 519 2828 778 3356 
Q 1038 3884 1533 4217 
Q 2028 4550 2644 4550 
Q 3253 4550 3878 4331 
L 3794 3891 
Q 3597 4000 3484 4051 
Q 3372 4103 3136 4158 
Q 2900 4213 2638 4213 
Q 1922 4213 1444 3627 
Q 966 3041 966 2222 
Q 966 1416 1439 823 
Q 1913 231 2644 231 
Q 2969 231 3222 298 
Q 3475 366 3567 412 
Q 3659 459 3916 622 
L 3950 250 
Q 3719 122 3591 61 
Q 3463 0 3213 -54 
Q 2963 -109 2644 -109 
Q 2028 -109 1533 223 
Q 1038 556 778 1084 
z
" transform="scale(0.015625)"/>
       <path id="CMUBright-Roman-73" d="M 184 250 
L 250 622 
Q 788 281 1325 281 
Q 1716 281 1881 442 
Q 2047 603 2047 806 
Q 2047 997 1909 1119 
Q 1772 1241 1606 1300 
Q 1534 1319 1234 1373 
Q 934 1428 726 1523 
Q 519 1619 372 1819 
Q 225 2025 225 2253 
Q 225 2400 272 2531 
Q 319 2663 428 2800 
Q 538 2938 764 3020 
Q 991 3103 1313 3103 
L 1331 3103 
Q 1819 3103 2303 2888 
L 2241 2534 
Q 1747 2784 1269 2784 
Q 891 2784 742 2634 
Q 594 2484 594 2303 
Q 594 2163 697 2038 
Q 800 1913 997 1856 
Q 1034 1844 1342 1783 
Q 1650 1722 1759 1684 
Q 2028 1588 2223 1373 
Q 2419 1159 2419 844 
Q 2419 497 2172 223 
Q 1925 -50 1329 -50 
Q 734 -50 184 250 
z
" transform="scale(0.015625)"/>
       <path id="CMUBright-Roman-6d" d="M 513 0 
L 513 3022 
L 909 3022 
L 909 2400 
Q 1013 2650 1252 2861 
Q 1491 3072 1875 3072 
Q 2138 3072 2320 2998 
Q 2503 2925 2592 2797 
Q 2681 2669 2711 2595 
Q 2741 2522 2766 2413 
Q 2772 2394 2772 2388 
Q 2888 2650 3123 2861 
Q 3359 3072 3744 3072 
Q 4000 3072 4183 2992 
Q 4366 2913 4455 2813 
Q 4544 2713 4592 2544 
Q 4641 2375 4647 2272 
Q 4653 2169 4653 2016 
L 4653 0 
L 4244 0 
L 4244 1991 
Q 4244 2106 4237 2176 
Q 4231 2247 4192 2369 
Q 4153 2491 4083 2564 
Q 4013 2638 3869 2695 
Q 3725 2753 3519 2753 
Q 3172 2753 2981 2470 
Q 2791 2188 2791 1728 
L 2791 0 
L 2375 0 
L 2375 1991 
Q 2375 2106 2372 2176 
Q 2369 2247 2330 2369 
Q 2291 2491 2220 2564 
Q 2150 2638 2006 2695 
Q 1863 2753 1656 2753 
Q 1309 2753 1115 2470 
Q 922 2188 922 1728 
Q 922 1716 925 1703 
Q 928 1691 928 1678 
L 928 0 
L 513 0 
z
" transform="scale(0.015625)"/>
      </defs>
      <use xlink:href="#CMUBright-Roman-48"/>
      <use xlink:href="#CMUBright-Roman-50" x="70.751953"/>
      <use xlink:href="#CMUBright-Roman-20" x="136.523438"/>
      <use xlink:href="#CMUBright-Roman-43" x="169.775391"/>
      <use xlink:href="#CMUBright-Roman-6f" x="236.865234"/>
      <use xlink:href="#CMUBright-Roman-6e" x="289.355469"/>
      <use xlink:href="#CMUBright-Roman-73" x="341.015625"/>
      <use xlink:href="#CMUBright-Roman-75" x="381.201172"/>
      <use xlink:href="#CMUBright-Roman-6d" x="432.861328"/>
      <use xlink:href="#CMUBright-Roman-70" x="513.623047"/>
      <use xlink:href="#CMUBright-Roman-74" x="565.283203"/>
      <use xlink:href="#CMUBright-Roman-69" x="603.173828"/>
      <use xlink:href="#CMUBright-Roman-6f" x="625.634766"/>
      <use xlink:href="#CMUBright-Roman-6e" x="678.125"/>
     </g>
    </g>
    <g id="line2d_19">
     <path d="M 132.176563 14.809375 
L 137.176563 14.809375 
L 137.176563 14.809375 
L 147.176563 14.809375 
L 147.176563 14.809375 
L 152.176563 14.809375 
" style="fill: none; stroke: #8d5eaa; stroke-width: 2; stroke-linecap: square"/>
    </g>
    <g id="text_17">
     <!-- EV Consumption -->
     <g transform="translate(160.176563 18.309375) scale(0.1 -0.1)">
      <use xlink:href="#CMUBright-Roman-45"/>
      <use xlink:href="#CMUBright-Roman-56" x="62.5"/>
      <use xlink:href="#CMUBright-Roman-20" x="129.980469"/>
      <use xlink:href="#CMUBright-Roman-43" x="163.232422"/>
      <use xlink:href="#CMUBright-Roman-6f" x="230.322266"/>
      <use xlink:href="#CMUBright-Roman-6e" x="282.8125"/>
      <use xlink:href="#CMUBright-Roman-73" x="334.472656"/>
      <use xlink:href="#CMUBright-Roman-75" x="374.658203"/>
      <use xlink:href="#CMUBright-Roman-6d" x="426.318359"/>
      <use xlink:href="#CMUBright-Roman-70" x="507.080078"/>
      <use xlink:href="#CMUBright-Roman-74" x="558.740234"/>
      <use xlink:href="#CMUBright-Roman-69" x="596.630859"/>
      <use xlink:href="#CMUBright-Roman-6f" x="619.091797"/>
      <use xlink:href="#CMUBright-Roman-6e" x="671.582031"/>
     </g>
    </g>
    <g id="line2d_20">
     <path d="M 132.176563 28.589063 
L 137.176563 28.589063 
L 137.176563 28.589063 
L 147.176563 28.589063 
L 147.176563 28.589063 
L 152.176563 28.589063 
" style="fill: none; stroke: #0033b0; stroke-width: 2; stroke-linecap: square"/>
    </g>
    <g id="text_18">
     <!-- Load Consumption -->
     <g transform="translate(160.176563 32.089063) scale(0.1 -0.1)">
      <defs>
       <path id="CMUBright-Roman-4c" d="M 628 0 
L 628 4447 
L 1075 4447 
L 1075 341 
L 3347 341 
L 3347 0 
L 628 0 
z
" transform="scale(0.015625)"/>
       <path id="CMUBright-Roman-64" d="M 294 1509 
Q 294 2188 659 2630 
Q 1025 3072 1503 3072 
Q 2016 3072 2381 2625 
L 2381 4447 
L 2784 4447 
L 2784 0 
L 2375 0 
L 2375 269 
L 2369 469 
Q 2016 -50 1459 -50 
Q 966 -50 630 412 
Q 294 875 294 1509 
z
M 709 1509 
Q 709 1138 809 877 
Q 909 616 1065 494 
Q 1222 372 1369 320 
Q 1516 269 1663 269 
Q 2022 269 2259 581 
Q 2278 613 2303 652 
Q 2328 691 2339 706 
Q 2350 722 2359 751 
Q 2369 781 2372 815 
Q 2375 850 2375 903 
L 2375 2253 
Q 2375 2438 2179 2595 
Q 1984 2753 1722 2753 
Q 1619 2753 1503 2726 
Q 1388 2700 1241 2620 
Q 1094 2541 983 2412 
Q 872 2284 790 2046 
Q 709 1809 709 1509 
z
" transform="scale(0.015625)"/>
      </defs>
      <use xlink:href="#CMUBright-Roman-4c"/>
      <use xlink:href="#CMUBright-Roman-6f" x="56.689453"/>
      <use xlink:href="#CMUBright-Roman-61" x="109.179688"/>
      <use xlink:href="#CMUBright-Roman-64" x="158.349609"/>
      <use xlink:href="#CMUBright-Roman-20" x="210.009766"/>
      <use xlink:href="#CMUBright-Roman-43" x="243.261719"/>
      <use xlink:href="#CMUBright-Roman-6f" x="310.351562"/>
      <use xlink:href="#CMUBright-Roman-6e" x="362.841797"/>
      <use xlink:href="#CMUBright-Roman-73" x="414.501953"/>
      <use xlink:href="#CMUBright-Roman-75" x="454.6875"/>
      <use xlink:href="#CMUBright-Roman-6d" x="506.347656"/>
      <use xlink:href="#CMUBright-Roman-70" x="587.109375"/>
      <use xlink:href="#CMUBright-Roman-74" x="638.769531"/>
      <use xlink:href="#CMUBright-Roman-69" x="676.660156"/>
      <use xlink:href="#CMUBright-Roman-6f" x="699.121094"/>
      <use xlink:href="#CMUBright-Roman-6e" x="751.611328"/>
     </g>
    </g>
   </g>
  </g>
 </g>
 <defs>
  <clipPath id="pdbbefb5822">
   <rect x="42.150781" y="43.78" width="167.4" height="166.32"/>
  </clipPath>
 </defs>
</svg>
